<svg width="306" height="175" viewBox="0 0 306 175" fill="none" xmlns="http://www.w3.org/2000/svg">
<path d="M0 32.3803C0 28.5143 3.13401 25.3803 7 25.3803H42.6525C45.1871 25.3803 46.8986 22.792 45.9062 20.4597L44.7015 17.6286C43.3438 14.4382 47.5196 11.82 49.8 14.4319L59.7955 23.5514C61.0851 24.728 62.7678 25.3803 64.5135 25.3803H299C302.866 25.3803 306 28.5143 306 32.3803V99C306 102.866 302.866 106 299 106H7.00001C3.13402 106 0 102.866 0 99V32.3803Z" fill="white"/>
<path d="M75.386 62H79.74C81.882 62 83.296 61.006 83.296 59.326C83.296 57.954 82.358 57.282 81.196 56.932C81.966 56.596 82.75 55.938 82.75 54.664C82.75 54.006 82.526 53.488 82.12 53.068C81.574 52.508 80.678 52.2 79.558 52.2H75.386V62ZM76.478 61.006V57.548H79.572C81.28 57.548 82.176 58.164 82.176 59.228C82.176 60.348 81.252 61.006 79.768 61.006H76.478ZM76.478 56.568V53.194H79.46C80.86 53.194 81.63 53.824 81.63 54.79C81.63 55.966 80.706 56.568 79.376 56.568H76.478ZM89.5048 62H90.5828V60.25L92.1088 58.682L94.6848 62H95.9588L92.8508 57.898L95.8748 54.762H94.5448L90.5828 58.934V54.762H89.5048V62ZM100.752 62.168C102.936 62.168 104.546 60.432 104.546 58.388C104.546 56.316 102.95 54.608 100.78 54.608C98.5961 54.608 97.0001 56.344 97.0001 58.388C97.0001 60.46 98.5821 62.168 100.752 62.168ZM100.78 61.202C99.2541 61.202 98.1061 59.942 98.1061 58.388C98.1061 56.834 99.1841 55.56 100.752 55.56C102.278 55.56 103.44 56.834 103.44 58.388C103.44 59.942 102.348 61.202 100.78 61.202ZM106.499 62H107.549V56.484L110.195 60.152L112.869 56.484V62H113.961V54.762H112.925L110.223 58.57L107.521 54.762H106.499V62ZM116.37 62H117.448V55.714H121.564V62H122.642V54.762H116.37V62ZM124.702 62.112C126.074 62.112 127.096 61.524 127.096 55.882V55.714H130.12V62H131.198V54.762H126.074V55.364C126.074 60.796 125.346 61.174 124.478 61.174C124.352 61.174 124.1 61.118 123.96 61.076L123.834 62C124.058 62.056 124.464 62.112 124.702 62.112ZM136.774 62.168C138.146 62.168 139.028 61.622 139.756 60.81L139.084 60.208C138.496 60.824 137.796 61.23 136.802 61.23C135.528 61.23 134.408 60.348 134.254 58.822H139.994C140.008 58.654 140.008 58.542 140.008 58.444C140.008 56.316 138.776 54.608 136.634 54.608C134.632 54.608 133.162 56.288 133.162 58.388C133.162 60.642 134.786 62.168 136.774 62.168ZM134.254 57.954C134.408 56.554 135.36 55.518 136.606 55.518C138.034 55.518 138.79 56.638 138.916 57.954H134.254ZM141.895 62H142.973V60.25L144.499 58.682L147.075 62H148.349L145.241 57.898L148.265 54.762H146.935L142.973 58.934V54.762H141.895V62ZM151.589 62H152.681V55.714H155.271V54.762H148.999V55.714H151.589V62ZM160.003 62.168C161.375 62.168 162.257 61.622 162.985 60.81L162.313 60.208C161.725 60.824 161.025 61.23 160.031 61.23C158.757 61.23 157.637 60.348 157.483 58.822H163.223C163.237 58.654 163.237 58.542 163.237 58.444C163.237 56.316 162.005 54.608 159.863 54.608C157.861 54.608 156.391 56.288 156.391 58.388C156.391 60.642 158.015 62.168 160.003 62.168ZM157.483 57.954C157.637 56.554 158.589 55.518 159.835 55.518C161.263 55.518 162.019 56.638 162.145 57.954H157.483ZM169.321 62H170.399V55.714H174.515V62H175.593V54.762H169.321V62ZM178.003 64.24H179.081V60.614C179.641 61.426 180.509 62.154 181.853 62.154C183.603 62.154 185.311 60.754 185.311 58.388C185.311 55.98 183.589 54.608 181.853 54.608C180.523 54.608 179.669 55.35 179.081 56.218V54.762H178.003V64.24ZM181.657 61.188C180.313 61.188 179.039 60.068 179.039 58.388C179.039 56.708 180.313 55.574 181.657 55.574C183.029 55.574 184.205 56.666 184.205 58.374C184.205 60.152 183.057 61.188 181.657 61.188ZM190.464 62.168C191.836 62.168 192.718 61.622 193.446 60.81L192.774 60.208C192.186 60.824 191.486 61.23 190.492 61.23C189.218 61.23 188.098 60.348 187.944 58.822H193.684C193.698 58.654 193.698 58.542 193.698 58.444C193.698 56.316 192.466 54.608 190.324 54.608C188.322 54.608 186.852 56.288 186.852 58.388C186.852 60.642 188.476 62.168 190.464 62.168ZM187.944 57.954C188.098 56.554 189.05 55.518 190.296 55.518C191.724 55.518 192.48 56.638 192.606 57.954H187.944ZM194.521 63.806H195.403L195.599 62H201.451V63.806H202.347L202.515 61.048H201.423V54.762H196.271V56.022C196.271 58.458 195.893 59.97 195.305 61.048H194.521V63.806ZM196.453 61.048C196.957 60.11 197.307 58.514 197.307 56.722V55.714H200.345V61.048H196.453ZM205.113 64.282C206.205 64.282 206.905 63.736 207.521 62.238L210.559 54.762H209.411L207.087 60.796L204.455 54.762H203.265L206.555 61.972C206.121 62.994 205.715 63.33 205.071 63.33C204.609 63.33 204.287 63.246 203.937 63.064L203.573 63.918C204.063 64.156 204.511 64.282 205.113 64.282ZM215.527 62.168C216.885 62.168 217.753 61.58 218.481 60.768L217.767 60.11C217.193 60.726 216.507 61.202 215.583 61.202C214.071 61.202 212.923 59.956 212.923 58.388C212.923 56.806 214.043 55.56 215.513 55.56C216.493 55.56 217.165 56.022 217.739 56.624L218.425 55.896C217.753 55.182 216.899 54.608 215.527 54.608C213.413 54.608 211.817 56.344 211.817 58.388C211.817 60.446 213.413 62.168 215.527 62.168ZM220.263 62H221.313V56.484L223.959 60.152L226.633 56.484V62H227.725V54.762H226.689L223.987 58.57L221.285 54.762H220.263V62ZM233.438 62.168C235.622 62.168 237.232 60.432 237.232 58.388C237.232 56.316 235.636 54.608 233.466 54.608C231.282 54.608 229.686 56.344 229.686 58.388C229.686 60.46 231.268 62.168 233.438 62.168ZM233.466 61.202C231.94 61.202 230.792 59.942 230.792 58.388C230.792 56.834 231.87 55.56 233.438 55.56C234.964 55.56 236.126 56.834 236.126 58.388C236.126 59.942 235.034 61.202 233.466 61.202ZM240.934 62H242.026V55.714H244.616V54.762H238.344V55.714H240.934V62ZM246.184 64.24H247.262V60.614C247.822 61.426 248.69 62.154 250.034 62.154C251.784 62.154 253.492 60.754 253.492 58.388C253.492 55.98 251.77 54.608 250.034 54.608C248.704 54.608 247.85 55.35 247.262 56.218V54.762H246.184V64.24ZM249.838 61.188C248.494 61.188 247.22 60.068 247.22 58.388C247.22 56.708 248.494 55.574 249.838 55.574C251.21 55.574 252.386 56.666 252.386 58.374C252.386 60.152 251.238 61.188 249.838 61.188ZM258.645 62.168C260.017 62.168 260.899 61.622 261.627 60.81L260.955 60.208C260.367 60.824 259.667 61.23 258.673 61.23C257.399 61.23 256.279 60.348 256.125 58.822H261.865C261.879 58.654 261.879 58.542 261.879 58.444C261.879 56.316 260.647 54.608 258.505 54.608C256.503 54.608 255.033 56.288 255.033 58.388C255.033 60.642 256.657 62.168 258.645 62.168ZM256.125 57.954C256.279 56.554 257.231 55.518 258.477 55.518C259.905 55.518 260.661 56.638 260.787 57.954H256.125ZM263.767 62H264.845V58.836H269.017V62H270.095V54.762H269.017V57.884H264.845V54.762H263.767V62ZM75.204 80H76.282V78.25L77.808 76.682L80.384 80H81.658L78.55 75.898L81.574 72.762H80.244L76.282 76.934V72.762H75.204V80ZM83.1474 82.24H84.2254V78.614C84.7854 79.426 85.6534 80.154 86.9974 80.154C88.7474 80.154 90.4554 78.754 90.4554 76.388C90.4554 73.98 88.7334 72.608 86.9974 72.608C85.6674 72.608 84.8134 73.35 84.2254 74.218V72.762H83.1474V82.24ZM86.8014 79.188C85.4574 79.188 84.1834 78.068 84.1834 76.388C84.1834 74.708 85.4574 73.574 86.8014 73.574C88.1734 73.574 89.3494 74.666 89.3494 76.374C89.3494 78.152 88.2014 79.188 86.8014 79.188ZM95.6082 80.168C96.9802 80.168 97.8622 79.622 98.5902 78.81L97.9182 78.208C97.3302 78.824 96.6302 79.23 95.6362 79.23C94.3622 79.23 93.2422 78.348 93.0882 76.822H98.8282C98.8422 76.654 98.8422 76.542 98.8422 76.444C98.8422 74.316 97.6102 72.608 95.4682 72.608C93.4662 72.608 91.9962 74.288 91.9962 76.388C91.9962 78.642 93.6202 80.168 95.6082 80.168ZM93.0882 75.954C93.2422 74.554 94.1942 73.518 95.4402 73.518C96.8682 73.518 97.6242 74.638 97.7502 75.954H93.0882ZM100.729 80H101.807V73.714H105.923V80H107.001V72.762H100.729V80ZM112.575 80.168C113.947 80.168 114.829 79.622 115.557 78.81L114.885 78.208C114.297 78.824 113.597 79.23 112.603 79.23C111.329 79.23 110.209 78.348 110.055 76.822H115.795C115.809 76.654 115.809 76.542 115.809 76.444C115.809 74.316 114.577 72.608 112.435 72.608C110.433 72.608 108.963 74.288 108.963 76.388C108.963 78.642 110.587 80.168 112.575 80.168ZM110.055 75.954C110.209 74.554 111.161 73.518 112.407 73.518C113.835 73.518 114.591 74.638 114.717 75.954H110.055ZM116.772 80H118.032L120.44 76.626L121.91 78.236V80H122.988V78.236L124.458 76.626L126.866 80H128.126L125.158 75.856L127.972 72.762H126.67L122.988 76.962V72.762H121.91V76.962L118.228 72.762H116.926L119.74 75.856L116.772 80ZM133.802 80H134.88V73.714H138.996V80H140.074V72.762H133.802V80ZM144.639 80.154C145.913 80.154 146.739 79.566 147.243 78.922V80H148.307V75.576C148.307 74.652 148.055 73.952 147.551 73.448C147.033 72.93 146.235 72.65 145.213 72.65C144.149 72.65 143.379 72.902 142.581 73.266L142.903 74.148C143.575 73.84 144.247 73.63 145.101 73.63C146.459 73.63 147.243 74.302 147.243 75.59V75.814C146.599 75.632 145.955 75.506 145.031 75.506C143.197 75.506 141.937 76.318 141.937 77.872C141.937 79.384 143.281 80.154 144.639 80.154ZM144.849 79.286C143.869 79.286 143.029 78.754 143.029 77.844C143.029 76.948 143.799 76.36 145.143 76.36C146.025 76.36 146.725 76.514 147.257 76.668V77.34C147.257 78.488 146.179 79.286 144.849 79.286ZM150.591 80H151.669V76.836H155.841V80H156.919V72.762H155.841V75.884H151.669V72.762H150.591V80ZM162.491 80.168C163.863 80.168 164.745 79.622 165.473 78.81L164.801 78.208C164.213 78.824 163.513 79.23 162.519 79.23C161.245 79.23 160.125 78.348 159.971 76.822H165.711C165.725 76.654 165.725 76.542 165.725 76.444C165.725 74.316 164.493 72.608 162.351 72.608C160.349 72.608 158.879 74.288 158.879 76.388C158.879 78.642 160.503 80.168 162.491 80.168ZM159.971 75.954C160.125 74.554 161.077 73.518 162.323 73.518C163.751 73.518 164.507 74.638 164.633 75.954H159.971ZM167.262 80.112C168.634 80.112 169.656 79.524 169.656 73.882V73.714H172.68V80H173.758V72.762H168.634V73.364C168.634 78.796 167.906 79.174 167.038 79.174C166.912 79.174 166.66 79.118 166.52 79.076L166.394 80C166.618 80.056 167.024 80.112 167.262 80.112ZM176.171 80H177.207L181.519 74.274V80H182.597V72.762H181.547L177.249 78.488V72.762H176.171V80ZM189.2 80H190.278V76.836H194.45V80H195.528V72.762H194.45V75.884H190.278V72.762H189.2V80ZM200.092 80.154C201.366 80.154 202.192 79.566 202.696 78.922V80H203.76V75.576C203.76 74.652 203.508 73.952 203.004 73.448C202.486 72.93 201.688 72.65 200.666 72.65C199.602 72.65 198.832 72.902 198.034 73.266L198.356 74.148C199.028 73.84 199.7 73.63 200.554 73.63C201.912 73.63 202.696 74.302 202.696 75.59V75.814C202.052 75.632 201.408 75.506 200.484 75.506C198.65 75.506 197.39 76.318 197.39 77.872C197.39 79.384 198.734 80.154 200.092 80.154ZM200.302 79.286C199.322 79.286 198.482 78.754 198.482 77.844C198.482 76.948 199.252 76.36 200.596 76.36C201.478 76.36 202.178 76.514 202.71 76.668V77.34C202.71 78.488 201.632 79.286 200.302 79.286ZM213.503 80.168C214.861 80.168 215.729 79.58 216.457 78.768L215.743 78.11C215.169 78.726 214.483 79.202 213.559 79.202C212.047 79.202 210.899 77.956 210.899 76.388C210.899 74.806 212.019 73.56 213.489 73.56C214.469 73.56 215.141 74.022 215.715 74.624L216.401 73.896C215.729 73.182 214.875 72.608 213.503 72.608C211.389 72.608 209.793 74.344 209.793 76.388C209.793 78.446 211.389 80.168 213.503 80.168ZM219.989 80H221.081V73.714H223.671V72.762H217.399V73.714H219.989V80ZM228.403 80.168C229.775 80.168 230.657 79.622 231.385 78.81L230.713 78.208C230.125 78.824 229.425 79.23 228.431 79.23C227.157 79.23 226.037 78.348 225.883 76.822H231.623C231.637 76.654 231.637 76.542 231.637 76.444C231.637 74.316 230.405 72.608 228.263 72.608C226.261 72.608 224.791 74.288 224.791 76.388C224.791 78.642 226.415 80.168 228.403 80.168ZM225.883 75.954C226.037 74.554 226.989 73.518 228.235 73.518C229.663 73.518 230.419 74.638 230.545 75.954H225.883ZM233.524 80H234.602V76.836H238.774V80H239.852V72.762H238.774V75.884H234.602V72.762H233.524V80ZM243.381 82.282C244.473 82.282 245.173 81.736 245.789 80.238L248.827 72.762H247.679L245.355 78.796L242.723 72.762H241.533L244.823 79.972C244.389 80.994 243.983 81.33 243.339 81.33C242.877 81.33 242.555 81.246 242.205 81.064L241.841 81.918C242.331 82.156 242.779 82.282 243.381 82.282ZM250.406 80H251.694V78.53H250.406V80Z" fill="black"/>
<mask id="path-3-inside-1_1_538" fill="white">
<path d="M58.4754 57.4999C58.4754 53.747 57.3625 50.0784 55.2775 46.958C53.1925 43.8375 50.229 41.4055 46.7618 39.9693C43.2946 38.5331 39.4793 38.1573 35.7986 38.8895C32.1178 39.6217 28.7367 41.4288 26.083 44.0826C23.4293 46.7363 21.6221 50.1173 20.89 53.7981C20.1578 57.4789 20.5336 61.2941 21.9698 64.7613C23.4059 68.2285 25.838 71.192 28.9584 73.277C32.0789 75.362 35.7475 76.4749 39.5004 76.4749V75.1863C36.0023 75.1863 32.5829 74.149 29.6743 72.2056C26.7658 70.2622 24.4989 67.5 23.1603 64.2682C21.8216 61.0364 21.4714 57.4803 22.1538 54.0495C22.8362 50.6186 24.5207 47.4672 26.9942 44.9937C29.4677 42.5202 32.6191 40.8358 36.0499 40.1533C39.4808 39.4709 43.0369 39.8211 46.2687 41.1598C49.5005 42.4984 52.2627 44.7653 54.2061 47.6739C56.1495 50.5824 57.1868 54.0019 57.1868 57.4999H58.4754Z"/>
</mask>
<path d="M58.4754 57.4999C58.4754 53.747 57.3625 50.0784 55.2775 46.958C53.1925 43.8375 50.229 41.4055 46.7618 39.9693C43.2946 38.5331 39.4793 38.1573 35.7986 38.8895C32.1178 39.6217 28.7367 41.4288 26.083 44.0826C23.4293 46.7363 21.6221 50.1173 20.89 53.7981C20.1578 57.4789 20.5336 61.2941 21.9698 64.7613C23.4059 68.2285 25.838 71.192 28.9584 73.277C32.0789 75.362 35.7475 76.4749 39.5004 76.4749V75.1863C36.0023 75.1863 32.5829 74.149 29.6743 72.2056C26.7658 70.2622 24.4989 67.5 23.1603 64.2682C21.8216 61.0364 21.4714 57.4803 22.1538 54.0495C22.8362 50.6186 24.5207 47.4672 26.9942 44.9937C29.4677 42.5202 32.6191 40.8358 36.0499 40.1533C39.4808 39.4709 43.0369 39.8211 46.2687 41.1598C49.5005 42.4984 52.2627 44.7653 54.2061 47.6739C56.1495 50.5824 57.1868 54.0019 57.1868 57.4999H58.4754Z" stroke="black" stroke-width="2.3" mask="url(#path-3-inside-1_1_538)"/>
<path d="M38.9258 48.8726V64.9726" stroke="black" stroke-width="1.15"/>
<path d="M46.9746 56.9292L30.8746 56.9292" stroke="black" stroke-width="1.15"/>
</svg>
