<svg width="56" height="28" viewBox="0 0 56 28" fill="none" xmlns="http://www.w3.org/2000/svg">
<path fill-rule="evenodd" clip-rule="evenodd" d="M0 13.9263V27.8529L0.550311 27.7889C1.09022 27.7264 1.10322 27.693 1.2345 26.0113C1.6009 21.3176 3.25544 16.5728 5.78447 12.9633C7.19567 10.9489 10.1637 7.87215 12.1291 6.38628C15.0565 4.1727 19.1156 2.41159 22.7128 1.79417C23.4833 1.6619 25.0141 1.54435 26.1148 1.53305L28.1159 1.51228L28.3412 14.7196C28.4651 21.9836 28.5776 27.9502 28.5914 27.9787C28.605 28.0071 34.7621 28.0071 42.2739 27.9787L55.9316 27.9269L55.9929 26.9646C56.0793 25.605 55.3669 21.6184 54.6349 19.3659C52.8617 13.909 49.8114 9.63325 45.1305 6.04329C41.7196 3.42724 38.9382 1.9696 35.3704 0.927737C33.8543 0.485141 33.0079 0.397025 28.4777 0.21172C25.6371 0.0953746 18.0678 0.000201638 11.6566 0H0V13.9263Z" fill="#EA1C26"/>
</svg>
