<svg width="46" height="43" viewBox="0 0 46 43" fill="none" xmlns="http://www.w3.org/2000/svg">
<path d="M0.736923 36.415V34.5803L4.24107 31.7078C4.93287 31.1363 5.40912 30.6801 5.6698 30.3392C5.93048 29.9883 6.06082 29.6023 6.06082 29.1812C6.06082 28.75 5.93048 28.4142 5.6698 28.1735C5.40912 27.9329 5.06823 27.8126 4.64713 27.8126C4.25611 27.8126 3.90018 27.9229 3.57934 28.1435C3.26853 28.354 2.90759 28.7149 2.49652 29.2263L0.872277 27.9179C1.42372 27.1659 1.99019 26.6145 2.57171 26.2635C3.16326 25.9126 3.90519 25.7372 4.79752 25.7372C5.89037 25.7372 6.76766 26.038 7.42939 26.6395C8.09112 27.2311 8.42198 28.0231 8.42198 29.0157C8.42198 29.5872 8.31169 30.1036 8.09112 30.5648C7.87054 31.0159 7.5848 31.417 7.23388 31.7679C6.88296 32.1088 6.35659 32.55 5.65476 33.0914L3.94028 34.4148H8.52726V36.415H0.736923ZM10.1071 36.415V34.5803L13.6112 31.7078C14.303 31.1363 14.7793 30.6801 15.04 30.3392C15.3006 29.9883 15.431 29.6023 15.431 29.1812C15.431 28.75 15.3006 28.4142 15.04 28.1735C14.7793 27.9329 14.4384 27.8126 14.0173 27.8126C13.6263 27.8126 13.2703 27.9229 12.9495 28.1435C12.6387 28.354 12.2777 28.7149 11.8667 29.2263L10.2424 27.9179C10.7939 27.1659 11.3604 26.6145 11.9419 26.2635C12.5334 25.9126 13.2754 25.7372 14.1677 25.7372C15.2605 25.7372 16.1378 26.038 16.7995 26.6395C17.4613 27.2311 17.7921 28.0231 17.7921 29.0157C17.7921 29.5872 17.6819 30.1036 17.4613 30.5648C17.2407 31.0159 16.955 31.417 16.604 31.7679C16.2531 32.1088 15.7267 32.55 15.0249 33.0914L13.3104 34.4148H17.8974V36.415H10.1071ZM27.5984 35.0465C26.7262 36.0792 25.5982 36.5955 24.2146 36.5955C22.831 36.5955 21.7081 36.0792 20.8458 35.0465C19.9836 34.0138 19.5524 32.7154 19.5524 31.1513C19.5524 29.5972 19.9886 28.3039 20.8609 27.2712C21.7331 26.2285 22.8611 25.7071 24.2447 25.7071C25.6183 25.7071 26.7362 26.2234 27.5984 27.2561C28.4707 28.2888 28.9069 29.5872 28.9069 31.1513C28.9069 32.7054 28.4707 34.0037 27.5984 35.0465ZM22.5603 33.5576C22.9914 34.1892 23.5529 34.5051 24.2447 34.5051C24.9365 34.5051 25.4879 34.1942 25.899 33.5726C26.3201 32.941 26.5306 32.1339 26.5306 31.1513C26.5306 30.1888 26.3151 29.3917 25.884 28.7601C25.4528 28.1184 24.8964 27.7975 24.2146 27.7975C23.5328 27.7975 22.9814 28.1134 22.5603 28.745C22.1392 29.3666 21.9286 30.1687 21.9286 31.1513C21.9286 32.1238 22.1392 32.9259 22.5603 33.5576ZM35.4982 36.415V25.8876H40.3859C41.5991 25.8876 42.5165 26.1984 43.1381 26.82C43.6194 27.3013 43.86 27.9078 43.86 28.6397C43.86 29.6323 43.3988 30.3893 42.4764 30.9107C43.1281 31.1613 43.6194 31.4922 43.9502 31.9033C44.2811 32.3043 44.4465 32.8457 44.4465 33.5275C44.4465 34.47 44.0956 35.1868 43.3938 35.6781C42.6919 36.1694 41.7294 36.415 40.5062 36.415H35.4982ZM37.754 30.1437H39.8896C41.0025 30.1437 41.559 29.7627 41.559 29.0007C41.559 28.6498 41.4286 28.3841 41.168 28.2036C40.9073 28.0131 40.5313 27.9179 40.04 27.9179H37.754V30.1437ZM37.754 34.3847H40.5062C41.5991 34.3847 42.1455 33.9937 42.1455 33.2117C42.1455 32.4497 41.574 32.0687 40.431 32.0687H37.754V34.3847Z" fill="black"/>
<path d="M24.7556 0.291308C24.4934 0.568117 24.4796 0.78665 24.4796 3.5256L24.4658 6.48308L23.8999 7.12411C23.4997 7.57574 23.3065 7.70686 23.2513 7.56117C23.2237 7.44462 22.8648 6.67247 22.4646 5.82748C21.0706 2.91371 19.7319 1.68992 17.5788 1.38397C16.7231 1.25285 15.1635 1.54423 14.3078 1.9813C13.0381 2.62233 12.417 3.58387 11.3957 6.43937C11.092 7.29893 10.6366 8.30419 10.402 8.66841C9.82229 9.57168 8.86998 10.0525 7.71065 10.0525C6.66172 10.0525 5.91644 9.68823 5.25396 8.88694C4.7847 8.30419 4.19123 6.81816 4.19123 6.23541C4.19123 6.00231 4.03942 5.97317 2.53504 5.97317H0.878845V6.45394C0.878845 7.21152 1.25149 8.581 1.78975 9.73194C3.15611 12.6894 6.12346 14.088 9.46345 13.345C11.6717 12.8497 12.8587 11.5968 13.9352 8.6247C14.6667 6.6142 15.0117 5.92946 15.5638 5.41955C16.3091 4.73481 17.5236 4.63283 18.3379 5.18645C18.6829 5.41955 19.2488 6.48308 19.511 7.35721C20.0493 9.20746 21.0706 10.4312 22.5336 10.9849C23.1961 11.2325 23.4721 11.4511 23.9137 12.0484L24.4796 12.7914V15.8654C24.4796 18.7501 24.4934 18.954 24.7556 19.2308C25.0179 19.5076 25.2111 19.5222 30.6903 19.5222H36.349V17.9925V16.4628H39.6338C42.6287 16.4628 42.9462 16.4336 43.3464 16.1714C44.2711 15.5886 44.5472 14.5834 44.1055 13.4907C43.8709 12.9517 43.6915 12.7477 43.2222 12.5292C42.6839 12.2669 42.2975 12.2378 39.4958 12.2378H36.349V9.76107V7.28437H39.4958C42.2699 7.28437 42.6977 7.24066 43.2084 7.00756C44.63 6.32282 44.7128 4.2249 43.3464 3.35077C42.9462 3.08853 42.6287 3.05939 39.6338 3.05939H36.349V1.52966V-6.89439e-05H30.6903C25.2111 -6.89439e-05 25.0179 0.0144999 24.7556 0.291308Z" fill="black"/>
</svg>
