<svg width="405" height="58" viewBox="0 0 405 58" fill="none" xmlns="http://www.w3.org/2000/svg">
<path d="M257.559 3.78016L267.914 28.8968H247.016L257.559 3.78016ZM245.715 32.1208H269.22L274.178 43.9695H278.085L259.421 0.0612793H255.886L236.845 43.9695H240.752L245.715 32.1208Z" fill="#231F20"/>
<path d="M294.717 13.5615H286.469V0.0263672H283.057V13.5615H277.043V16.4131H283.118V36.5231C283.118 42.1693 286.653 43.9696 290.188 43.9696C291.927 43.9696 293.417 43.6586 294.779 43.1593L294.595 40.2463C293.539 40.7413 292.238 41.0523 291.06 41.0523C288.331 41.0523 286.469 39.874 286.469 35.7171V16.4131H294.718L294.717 13.5615Z" fill="#231F20"/>
<path d="M300.955 44.0132H304.367V28.5069C304.367 20.4471 308.892 16.3515 313.483 16.3515C319.435 16.3515 320.863 20.8808 320.863 26.2116V44.0132H324.271V28.1346C324.271 21.7481 327.25 16.3515 333.264 16.3515C339.094 16.3515 341.14 21.1261 341.14 26.8336V44.0132H344.491V25.594C344.491 18.7695 341.205 13.5613 333.763 13.5613C328.989 13.5613 325.266 16.0405 323.404 20.4471H323.281C321.669 15.6069 318.384 13.5613 314.039 13.5613C309.948 13.5613 305.979 16.1062 304.306 20.0748H304.179C304.179 18.5242 304.056 15.1732 303.933 13.5613H300.705C300.893 15.4842 300.955 19.3301 300.955 20.9421L300.955 44.0132Z" fill="#231F20"/>
<path d="M376.703 28.7566C376.703 35.638 372.179 40.9732 364.92 40.9732C357.728 40.9732 353.199 35.638 353.199 28.7566C353.199 21.8707 357.728 16.4742 364.92 16.4742C372.179 16.4742 376.703 21.8707 376.703 28.7566ZM380.177 28.7566C380.177 19.9478 373.913 13.5613 364.92 13.5613C355.989 13.5613 349.729 19.9478 349.729 28.7566C349.729 37.4997 355.989 44.0132 364.92 44.0132C373.913 44.0132 380.177 37.4997 380.177 28.7566Z" fill="#231F20"/>
<path d="M404.444 18.4934C402.582 15.3308 398.925 13.5918 394.706 13.5918C389.682 13.5918 384.846 16.0754 384.846 21.6559C384.846 32.3833 401.649 27.6088 401.649 35.4846C401.649 39.5145 398.114 41.1264 394.518 41.1264C390.983 41.1264 387.882 39.2692 386.209 36.6629L383.541 38.5858C386.025 42.2434 390.177 43.9824 394.518 43.9824C399.792 43.9824 405 41.3761 405 35.2349C405 30.5217 401.465 28.2921 395.324 26.9255C390.549 25.8742 388.07 24.7572 388.07 21.4063C388.07 17.81 391.544 16.3821 394.584 16.3821C397.808 16.3821 400.41 17.9327 401.838 20.355L404.444 18.4934Z" fill="#231F20"/>
<path d="M0 44.022H6.48724C18.5988 44.022 28.472 34.1488 28.472 22.0372C28.472 9.92569 18.5988 0.0480957 6.48724 0.0480957H0V44.022Z" fill="#231F20"/>
<path d="M62.5462 0.0480957H56.059C43.9474 0.0480957 34.0742 9.92569 34.0742 22.0372C34.0742 34.1488 43.9474 44.022 56.059 44.022H62.5462V0.0480957Z" fill="#231F20"/>
<path d="M107.063 22.0372C107.063 13.5964 100.182 6.71492 91.7409 6.71492H82.5291V37.3552H91.7409C100.182 37.3552 107.063 30.4737 107.063 22.0372ZM113.73 22.0372C113.73 34.1576 103.866 44.022 91.7453 44.022H75.8623V0.0480957H91.7453C103.866 0.0480957 113.73 9.91255 113.73 22.0372Z" fill="#231F20"/>
<path d="M141.532 28.77C141.532 23.7326 137.388 19.5845 132.346 19.5845C127.304 19.5845 123.161 23.6757 123.161 28.77C123.161 33.8117 127.247 37.9599 132.346 37.9599C137.388 37.9599 141.532 33.8687 141.532 28.77ZM147.625 28.7831C147.625 37.1845 140.791 44.0178 132.39 44.0178C123.989 44.0178 117.155 37.1845 117.155 28.7831C117.155 20.3816 123.989 13.5483 132.39 13.5483C140.791 13.5483 147.625 20.3816 147.625 28.7831Z" fill="#231F20"/>
<path d="M151.896 44.0177H158.562V0H151.896V44.0177Z" fill="#231F20"/>
<path d="M188.739 28.7742C188.739 23.7325 184.595 19.5887 179.554 19.5887C175.515 19.5887 172.063 22.2125 170.841 25.8745C170.539 26.7856 170.368 27.758 170.368 28.7742C170.368 29.7861 170.539 30.7541 170.841 31.6652C172.054 35.3053 175.48 37.9598 179.554 37.9598C184.595 37.9598 188.739 33.8685 188.739 28.7742ZM194.788 28.7742C194.788 37.1757 187.955 44.009 179.554 44.009C176.316 44.009 173.312 42.9927 170.841 41.2625V44.0177H164.161V0H170.841V16.286C173.312 14.5558 176.316 13.5395 179.554 13.5395C187.955 13.5395 194.788 20.3728 194.788 28.7742Z" fill="#231F20"/>
<path d="M219.195 13.5877L210.513 33.1107L201.827 13.5877H194.547L206.869 41.2888C206.869 41.2888 203.855 48.0782 203.851 48.0914C203.049 49.8829 200.942 50.6933 199.155 49.8961L198.2 49.4712L195.511 55.5072L195.519 55.5159L197.828 56.5453C202.164 58.477 207.276 56.5103 209.212 52.165C209.23 52.13 224.994 16.8992 226.475 13.5876L219.195 13.5877Z" fill="#231F20"/>
</svg>
