<svg width="36" height="24" viewBox="0 0 36 24" fill="none" xmlns="http://www.w3.org/2000/svg">
<path d="M10.8029 0.82666L10.8029 0.826679C10.5059 0.766487 9.98636 0.729086 9.49989 0.713459C9.012 0.697784 8.48855 0.701847 8.18057 0.741375L8.17678 0.741861C7.23574 0.869976 6.19944 1.22647 5.34919 1.71754C4.37484 2.2796 3.38036 3.31546 2.90901 4.2858C2.90897 4.28586 2.90894 4.28592 2.90891 4.28599L2.89917 4.30596C2.80845 4.49187 2.72521 4.66249 2.65044 4.89347C2.5742 5.129 2.5104 5.41469 2.43728 5.84685C2.29884 6.66508 2.11496 8.08539 1.75834 10.84C1.74025 10.9797 1.72173 11.1228 1.70274 11.2694L1.70267 11.27C1.68624 11.398 1.66847 11.5366 1.6497 11.683C1.52434 12.6608 1.35413 13.9885 1.23907 14.8401L1.23863 14.8434C1.11291 15.8229 0.960771 16.9946 0.901017 17.4491C0.849205 17.8204 0.81713 18.0701 0.816123 18.2924C0.81505 18.5293 0.849046 18.7219 0.89944 18.9749L10.8029 0.82666ZM10.8029 0.82666L10.8071 0.827559M10.8029 0.82666L10.8071 0.827559M10.8071 0.827559C12.1821 1.11866 13.1539 1.61958 14.2484 2.58015L14.2488 2.58045M10.8071 0.827559L14.2488 2.58045M14.2488 2.58045L14.8297 3.09123M14.2488 2.58045L14.8297 3.09123M17.2117 11.4019L17.2139 11.4018C18.885 11.3108 20.1209 11.6899 21.1022 12.5287C21.4016 12.7905 21.6822 13.0919 21.7837 13.2481C21.9801 13.5585 22.4107 14.3815 24.6366 18.7364C25.0662 19.5782 25.3286 20.0805 25.5605 20.431C25.81 20.8082 26.0267 21.0137 26.3387 21.2747L17.2117 11.4019ZM17.2117 11.4019C16.3563 11.4447 15.9037 11.5469 15.2209 11.8337C14.7538 12.0335 14.5846 12.1366 14.1509 12.5076L14.1509 12.5077M17.2117 11.4019L14.1509 12.5077M14.1509 12.5077L14.1473 12.5107M14.1509 12.5077L14.1473 12.5107M14.1473 12.5107C13.8126 12.7917 13.5443 13.083 13.4377 13.2489L13.4364 13.2508M14.1473 12.5107L13.4364 13.2508M13.4364 13.2508C13.3215 13.4279 12.8119 14.3802 12.2957 15.3896C12.2233 15.5316 12.1527 15.6697 12.0841 15.8043C10.8445 18.2328 10.2127 19.4708 9.81146 20.1594C9.59775 20.5262 9.43405 20.7648 9.26305 20.9525C9.10934 21.1212 8.95804 21.238 8.80768 21.3541C8.79056 21.3673 8.77345 21.3805 8.75636 21.3938L8.75611 21.394M13.4364 13.2508L8.75611 21.394M8.75611 21.394C7.33475 22.4962 5.24749 22.7458 3.54492 22.0393L8.75611 21.394ZM14.8297 3.09123H17.611H20.3869L21.0015 2.55617C22.2046 1.50865 23.2998 0.995634 24.8547 0.7656C25.6851 0.637302 26.8869 0.679068 27.6972 0.862915C29.7968 1.33474 31.6307 2.72971 32.42 4.52353C32.7069 5.1697 32.7989 5.66672 33.0552 7.69651M14.8297 3.09123L26.3388 21.2747C27.3228 22.0977 28.5418 22.4909 29.8987 22.4228C32.1602 22.3174 34.0146 20.8983 34.3519 18.8283C34.4299 18.3544 34.4165 18.0927 34.3208 17.4371M33.0552 7.69651C33.0552 7.69617 33.0551 7.69582 33.0551 7.69547L32.5593 7.76022L33.0554 7.69758C33.0553 7.69723 33.0553 7.69687 33.0552 7.69651ZM33.0552 7.69651C33.1099 8.1151 33.1767 8.6321 33.2452 9.16205C33.3433 9.92125 33.4448 10.707 33.519 11.2681C33.6451 12.2218 33.8506 13.827 33.9767 14.8437M33.9767 14.8437C34.0476 15.3867 34.1269 15.9794 34.1932 16.475C34.2494 16.8955 34.2963 17.2461 34.3208 17.4371M33.9767 14.8437C33.9766 14.8432 33.9766 14.8428 33.9765 14.8423L33.4807 14.9071L33.9769 14.8455C33.9768 14.8449 33.9768 14.8443 33.9767 14.8437ZM34.3208 17.4371C34.3206 17.4356 34.3204 17.4341 34.3202 17.4326L33.8254 17.5049L34.3214 17.4414C34.3212 17.4399 34.321 17.4385 34.3208 17.4371ZM8.43653 0.549679L8.43498 0.549818C6.23748 0.748026 4.24624 1.8351 3.07283 3.43264C2.68922 3.95909 2.30154 4.76883 2.15968 5.33027L2.15923 5.33202C2.13792 5.41508 2.07923 5.7769 1.99826 6.33778C1.91999 6.87986 1.82589 7.57052 1.73332 8.27776C1.55456 9.69398 1.38843 10.9735 1.36796 11.1195C1.3485 11.2583 1.13679 12.8601 0.897934 14.6882L0.897863 14.6888C0.617033 16.8199 0.487021 17.901 0.500997 18.6053C0.507689 18.9424 0.547791 19.1745 0.615152 19.3835C0.6848 19.5995 0.789519 19.8106 0.953613 20.1125C1.36359 20.8588 2.03508 21.5039 2.95937 22.005C4.17322 22.6543 6.0943 22.7867 7.5157 22.2909C8.50336 21.9444 9.47515 21.2411 9.95417 20.5501C10.0103 20.4684 10.2348 20.0647 10.5704 19.434C10.897 18.82 11.31 18.0271 11.7298 17.204L11.73 17.2035L11.7949 17.0766C12.7785 15.1525 13.2823 14.167 13.6044 13.6107C13.7711 13.323 13.9014 13.128 14.0367 12.9694C14.1664 12.8173 14.2912 12.7106 14.416 12.6039C14.4225 12.5984 14.429 12.5928 14.4354 12.5873C14.9995 12.1046 15.7462 11.7517 16.4628 11.6343L16.4641 11.6341C16.7354 11.5904 17.1892 11.5724 17.611 11.5724C18.0328 11.5724 18.4865 11.5904 18.7578 11.6341L18.7593 11.6343C19.2438 11.7139 19.7466 11.9102 20.1882 12.1658C20.6269 12.4197 21.0376 12.7509 21.3178 13.1253C21.46 13.3118 21.589 13.5292 21.9814 14.277C22.379 15.0347 23.0629 16.369 24.319 18.8196L24.3334 18.8477C24.3335 18.8478 24.3335 18.8479 24.3336 18.848C24.5466 19.263 24.7692 19.6789 24.9557 20.0127C25.1516 20.3634 25.286 20.5836 25.3304 20.6405L25.3305 20.6405L25.3372 20.6494C25.4438 20.7928 25.7559 21.1104 26.0229 21.3389C27.5163 22.6114 29.8701 22.972 31.8312 22.1961C32.4512 21.9487 33.2211 21.4281 33.6225 20.9901L33.6225 20.99L33.6264 20.9858C34.0132 20.5735 34.4611 19.8263 34.6013 19.3799L34.6018 19.3783C34.6633 19.1848 34.6991 19.0517 34.7158 18.858C34.7336 18.6527 34.7308 18.3649 34.691 17.8713C34.611 16.8812 34.3912 15.1631 33.9593 11.8232C33.671 9.60855 33.4592 8.02613 33.3048 6.94843C33.147 5.84755 33.0546 5.31777 33.0085 5.1645L33.0085 5.16451L33.0069 5.1591C32.4449 3.20971 30.6897 1.54066 28.4151 0.87207C27.5257 0.613035 26.9819 0.534603 26.061 0.529148C24.0008 0.523865 22.3467 1.09611 20.886 2.30336L20.2699 2.81355L20.1311 2.92845H19.951H17.611H15.2709H15.0908L14.952 2.81356L14.3361 2.30354C14.336 2.30342 14.3358 2.3033 14.3357 2.30318C13.0986 1.28201 11.6965 0.710886 9.97356 0.543932C9.33752 0.484674 9.13654 0.484335 8.43653 0.549679ZM3.54488 22.0393C2.17751 21.473 1.16807 20.3271 0.899501 18.9752L3.54488 22.0393Z" fill="black" stroke="black"/>
<path d="M8.61992 0.551617L8.62149 0.551472C9.33716 0.483683 9.54276 0.484039 10.1932 0.545534C11.9544 0.71875 13.3887 1.31131 14.6549 2.37196C14.655 2.37205 14.6551 2.37213 14.6552 2.37221L15.2847 2.90113L15.4242 3.01833H15.6064H17.9978H20.3892H20.5714L20.7109 2.90113L21.3405 2.37203L8.61992 0.551617ZM8.61992 0.551617C6.37379 0.757198 4.33588 1.88486 3.13353 3.54592C2.74027 4.09355 2.34271 4.93582 2.19689 5.52141L2.19645 5.52314M8.61992 0.551617L2.19645 5.52314M2.19645 5.52314C2.17426 5.61093 2.11407 5.98791 2.03142 6.56878C1.95142 7.13109 1.85524 7.84746 1.76061 8.58098C1.57792 10.0498 1.40816 11.3765 1.38727 11.5277C1.36735 11.6718 1.15098 13.3331 0.906888 15.2288L0.906818 15.2294M2.19645 5.52314L0.906818 15.2294M0.906818 15.2294C0.619942 17.4385 0.486694 18.5621 0.501024 19.2948C0.507902 19.6465 0.549171 19.8897 0.618858 20.109C0.690744 20.3353 0.798649 20.5558 0.966384 20.8689C1.38751 21.6468 2.07626 22.3175 3.02188 22.8378C4.26417 23.512 6.22856 23.6492 7.6822 23.1347C8.69218 22.7751 9.68782 22.0448 10.1799 21.3246C10.2379 21.2389 10.4681 20.8188 10.8108 20.165C11.1447 19.5282 11.5668 18.7058 11.9959 17.8521L11.9961 17.8517M0.906818 15.2294L11.9961 17.8517M11.9961 17.8517L12.0618 17.7212C13.0675 15.7248 13.5822 14.7032 13.9112 14.1267C14.0812 13.8289 14.2138 13.6277 14.351 13.4644C14.4827 13.3077 14.6095 13.1977 14.7372 13.0869C14.7438 13.0812 14.7503 13.0756 14.7569 13.0699C15.3316 12.5708 16.0933 12.2053 16.8251 12.0836L16.8263 12.0834M11.9961 17.8517L16.8263 12.0834M16.8263 12.0834C17.1032 12.0381 17.5667 12.0195 17.9978 12.0195C18.4288 12.0195 18.8923 12.0381 19.1692 12.0834L19.1707 12.0836M16.8263 12.0834L19.1707 12.0836M19.1707 12.0836C19.6653 12.1661 20.1784 12.3694 20.6288 12.6339C21.0767 12.8969 21.4948 13.2394 21.7794 13.6253C21.9236 13.8173 22.0546 14.0411 22.4558 14.8169C22.8622 15.6027 23.5611 16.9863 24.8449 19.5281L24.8595 19.5568C25.0773 19.9875 25.3049 20.4191 25.4957 20.7656C25.6958 21.1289 25.8339 21.3587 25.8803 21.4191L25.8804 21.419M19.1707 12.0836L25.8804 21.419M25.8804 21.419L25.887 21.428M25.8804 21.419L25.887 21.428M25.887 21.428C25.9971 21.5783 26.3171 21.9086 26.5902 22.1458C28.1195 23.4679 30.5266 23.8413 32.5318 23.0364C33.1662 22.7796 33.9547 22.2388 34.3667 21.7826L34.3666 21.7826L34.3706 21.7784M25.887 21.428L34.3706 21.7784M34.3706 21.7784C34.7671 21.3493 35.2266 20.572 35.3711 20.1052L35.3717 20.1035M34.3706 21.7784L35.3717 20.1035M35.3717 20.1035C35.4347 19.9022 35.4719 19.7622 35.4893 19.5586C35.5076 19.3436 35.5046 19.0434 35.4638 18.531C35.382 17.5035 35.1573 15.721 34.716 12.2577C34.4213 9.96105 34.2049 8.31987 34.047 7.20208C33.886 6.06139 33.7912 5.50963 33.7434 5.34847L33.7419 5.34313M35.3717 20.1035L33.7419 5.34313M33.7419 5.34313C33.1649 3.31228 31.3653 1.57928 29.0399 0.885838M33.7419 5.34313L29.0399 0.885838M11.0394 0.87565L11.0394 0.875669C10.7362 0.813328 10.2056 0.774544 9.70844 0.758337C9.20984 0.742085 8.67514 0.746309 8.36073 0.78726L8.35688 0.78776C7.39576 0.920538 6.33757 1.28997 5.46969 1.79858C4.47536 2.38053 3.46162 3.4526 2.98178 4.45463C2.98177 4.45464 2.98176 4.45466 2.98176 4.45468C2.98165 4.4549 2.98155 4.45512 2.98144 4.45534L2.97162 4.47576C2.87882 4.66875 2.79436 4.84442 2.71845 5.08238C2.64106 5.32499 2.57609 5.61989 2.50144 6.0676C2.36005 6.91563 2.17219 8.38808 1.80762 11.2456C1.78918 11.3902 1.77028 11.5383 1.75091 11.69L1.75084 11.6906C1.73406 11.8233 1.7159 11.967 1.69671 12.1189C1.5686 13.1329 1.39464 14.5099 1.27704 15.3931L1.27661 15.3964L1.27662 15.3964C1.14812 16.4123 0.992623 17.6274 0.931561 18.0987C0.87855 18.4843 0.846051 18.7414 0.845031 18.97C0.843947 19.2129 0.878228 19.4104 0.929699 19.6726L11.0394 0.87565ZM11.0394 0.87565L11.0437 0.876575M11.0394 0.87565L11.0437 0.876575M11.0437 0.876575C12.4481 1.17829 13.4399 1.69727 14.5569 2.69197L14.5572 2.69227M11.0437 0.876575L14.5572 2.69227M14.5572 2.69227L15.1534 3.22417M14.5572 2.69227L15.1534 3.22417M17.5895 11.8056L17.5918 11.8055C19.2998 11.7111 20.5646 12.1041 21.5701 12.9761C21.8763 13.2479 22.1646 13.5618 22.2697 13.726C22.471 14.0488 22.9116 14.9033 25.186 19.4189C25.1861 19.419 25.1861 19.4191 25.1862 19.4192L25.6327 19.1943L17.5895 11.8056ZM17.5895 11.8056C16.715 11.85 16.2519 11.9561 15.5533 12.2538C15.0753 12.4614 14.9015 12.5687 14.4573 12.9544L14.4573 12.9544M17.5895 11.8056L14.4573 12.9544M14.4573 12.9544L14.4537 12.9575M14.4573 12.9544L14.4537 12.9575M14.4537 12.9575C14.1114 13.2491 13.8358 13.5525 13.7254 13.7267L13.7242 13.7286M14.4537 12.9575L13.7242 13.7286M13.7242 13.7286C13.606 13.9133 13.0845 14.9023 12.5572 15.9488C12.4834 16.0956 12.4115 16.2384 12.3415 16.3776C11.0743 18.8969 10.4288 20.1803 10.0191 20.8939C9.80096 21.2738 9.63443 21.5199 9.46084 21.7133C9.30465 21.8872 9.15096 22.0076 8.99719 22.1281C8.97971 22.1418 8.96223 22.1555 8.94475 22.1693L8.94451 22.1695M13.7242 13.7286L8.94451 22.1695M8.94451 22.1695C7.49484 23.3102 5.36363 23.5695 3.62492 22.8375L8.94451 22.1695ZM29.0399 0.885838C28.1308 0.61717 27.5747 0.535818 26.6334 0.530165C24.5277 0.524698 22.8358 1.1181 21.3409 2.37173L29.0399 0.885838ZM15.1534 3.22417H17.9978H20.8368L21.4673 2.66714C22.695 1.58242 23.8128 1.05081 25.4012 0.812361C26.2497 0.679346 27.4779 0.722721 28.3055 0.913406C30.4505 1.40279 32.3198 2.84813 33.1231 4.70096C33.4147 5.36736 33.5085 5.87902 33.7705 7.98473C33.8264 8.41921 33.8948 8.95603 33.9648 9.50624C34.065 10.2931 34.1687 11.1073 34.2445 11.6888C34.3733 12.6778 34.5833 14.3424 34.7122 15.3966C34.7847 15.9601 34.8657 16.5747 34.9335 17.0885C34.9909 17.5246 35.0389 17.888 35.0639 18.0861C35.1615 18.7651 35.1749 19.0335 35.0958 19.5214C34.7534 21.6537 32.8677 23.1253 30.5553 23.2347C29.169 23.3053 27.9248 22.8975 26.9215 22.046L15.1534 3.22417ZM3.62483 22.8375C2.22854 22.2508 1.20239 21.0656 0.929758 19.6729L3.62483 22.8375Z" fill="black" stroke="black"/>
<path d="M25.2872 2.70624C24.2465 3.27345 24.7105 4.69714 25.9369 4.69714C26.5335 4.69714 26.9246 4.49295 27.1632 4.04485C27.382 3.64213 27.2826 3.20538 26.9047 2.86506C26.6329 2.62116 26.4075 2.54175 25.9767 2.54175C25.6651 2.54175 25.5325 2.57578 25.2872 2.70624Z" fill="black"/>
<path d="M8.75436 2.8254C8.58864 2.89914 8.42954 3.02392 8.34337 3.16005C8.20416 3.36425 8.19753 3.455 8.19753 4.54404V5.71249L6.78556 5.72951C5.40673 5.74653 5.36033 5.7522 5.13494 5.88833C4.79687 6.08685 4.65766 6.31374 4.66429 6.66541C4.66429 6.89796 4.70406 7.00573 4.84327 7.16455C5.13494 7.49353 5.18798 7.50488 6.73916 7.53324L8.16439 7.5616L8.19753 8.79244C8.23068 9.92686 8.24393 10.0346 8.36988 10.1821C8.58201 10.4203 8.90683 10.5621 9.25154 10.5621C9.62276 10.5621 9.90118 10.4317 10.1199 10.1537C10.279 9.96089 10.2857 9.92119 10.3055 8.74139L10.3254 7.53324H11.7043C13.0234 7.53324 13.0897 7.52756 13.3018 7.40278C13.6797 7.18724 13.799 7.00006 13.799 6.6257C13.799 6.22298 13.6598 6.03013 13.2355 5.84295C12.9638 5.72384 12.8577 5.71817 11.638 5.71817H10.3254L10.3055 4.53837C10.2857 3.20543 10.2393 3.08064 9.74871 2.84242C9.42389 2.6836 9.1057 2.67792 8.75436 2.8254Z" fill="black"/>
<path d="M22.2845 5.6275C22.026 5.7296 21.7542 5.97917 21.6282 6.24008C21.2239 7.05687 22.1254 7.93037 23.1264 7.69781C24.0279 7.49362 24.3859 6.54638 23.7959 5.93946C23.4512 5.59347 22.7552 5.44599 22.2845 5.6275Z" fill="black"/>
<path d="M28.9672 5.65577C28.6159 5.7919 28.3043 6.15491 28.2446 6.48956C28.1585 6.97736 28.5363 7.48785 29.1197 7.6807C29.6898 7.86788 30.3858 7.61264 30.6642 7.11917C31.1879 6.19462 30.0676 5.23036 28.9672 5.65577Z" fill="black"/>
<path d="M25.6127 8.61092C24.8902 8.7981 24.5123 9.52413 24.8305 10.114C25.2415 10.8798 26.4413 10.9875 27.0181 10.3126C27.734 9.46741 26.786 8.3103 25.6127 8.61092Z" fill="black"/>
</svg>
