<svg width="32" height="44" viewBox="0 0 32 44" fill="none" xmlns="http://www.w3.org/2000/svg">
<path d="M17.7537 10.7518L21.3403 14.3522L17.7558 17.9496L17.7537 10.7518ZM17.7537 32.7914L21.3403 29.1918L17.7558 25.5936L17.7537 32.7914ZM13.9242 21.7717L6.17073 13.9686L8.41809 11.7133L14.5946 17.9164V3.05123L25.8278 14.3264L18.4108 21.7717L25.8292 29.219L14.5954 40.4944V25.6282L8.41734 31.832L6.16985 29.5753L13.9242 21.7717ZM16.0014 43.5462C25.4734 43.5462 31.9999 39.029 31.9999 21.7723C31.9999 4.5163 25.4734 0 16.0014 0C6.52997 0 0 4.51705 0 21.7723C0 39.0292 6.52935 43.5462 16.0014 43.5462Z" fill="#0060A9"/>
<path d="M17.7537 10.7518L21.3403 14.3522L17.7558 17.9496L17.7537 10.7518ZM17.7537 32.7914L21.3403 29.1918L17.7558 25.5936L17.7537 32.7914ZM13.9242 21.7717L6.17073 13.9686L8.41809 11.7133L14.5946 17.9164V3.05123L25.8278 14.3264L18.4108 21.7717L25.8292 29.219L14.5954 40.4944V25.6282L8.41734 31.832L6.16985 29.5753L13.9242 21.7717ZM16.0014 43.5462C25.4734 43.5462 31.9999 39.029 31.9999 21.7723C31.9999 4.5163 25.4734 0 16.0014 0C6.52997 0 0 4.51705 0 21.7723C0 39.0292 6.52935 43.5462 16.0014 43.5462Z" fill="black"/>
</svg>
