<svg width="71" height="97" viewBox="0 0 71 97" fill="none" xmlns="http://www.w3.org/2000/svg">
<g id="Vector">
<path d="M39.3911 23.9497L47.349 31.9698L39.3958 39.9831L39.3911 23.9497ZM39.3911 73.0435L47.349 65.0252L39.3958 57.0102L39.3911 73.0435ZM30.8944 48.4968L13.6914 31.1154L18.6777 26.0916L32.3818 39.9091V6.79667L57.3056 31.9122L40.8491 48.4968L57.3086 65.0858L32.3838 90.2019V57.0873L18.676 70.9065L13.6894 65.8796L30.8944 48.4968ZM35.5033 97C56.5193 97 71 86.9379 71 48.4982C71 10.0601 56.5193 0 35.5033 0C14.4884 0 0 10.0618 0 48.4982C0 86.9382 14.487 97 35.5033 97Z" fill="#0060A9"/>
<path d="M39.3911 23.9497L47.349 31.9698L39.3958 39.9831L39.3911 23.9497ZM39.3911 73.0435L47.349 65.0252L39.3958 57.0102L39.3911 73.0435ZM30.8944 48.4968L13.6914 31.1154L18.6777 26.0916L32.3818 39.9091V6.79667L57.3056 31.9122L40.8491 48.4968L57.3086 65.0858L32.3838 90.2019V57.0873L18.676 70.9065L13.6894 65.8796L30.8944 48.4968ZM35.5033 97C56.5193 97 71 86.9379 71 48.4982C71 10.0601 56.5193 0 35.5033 0C14.4884 0 0 10.0618 0 48.4982C0 86.9382 14.487 97 35.5033 97Z" fill="black"/>
</g>
</svg>
