<svg width="27" height="27" viewBox="0 0 27 27" fill="none" xmlns="http://www.w3.org/2000/svg">
<path d="M12.1798 0.0110416C10.4055 0.222347 8.9692 0.634392 7.50645 1.35283C6.11764 2.03429 4.91365 2.91649 3.78359 4.07867C1.79806 6.12304 0.583513 8.56362 0.102973 11.4691C-0.0343243 12.3037 -0.0343243 14.702 0.102973 15.5367C0.499022 17.935 1.45482 20.1273 2.88588 21.9287C4.72355 24.2372 7.4114 25.9646 10.226 26.6461C11.4986 26.9577 11.9052 27 13.5264 27C14.8043 26.9947 15.0948 26.9789 15.6651 26.8838C18.6222 26.3661 20.9827 25.1511 23.0633 23.0697C25.1703 20.9567 26.4006 18.5425 26.897 15.5367C27.0343 14.702 27.0343 12.3037 26.897 11.4691C26.5168 9.15528 25.693 7.19542 24.3359 5.36763C23.7445 4.57524 22.4243 3.25458 21.6322 2.66292C19.8368 1.3317 17.9252 0.512892 15.6968 0.132544C15.1845 0.042738 14.7832 0.016325 13.7112 0.00576019C12.9719 -0.00480652 12.2802 0.000476837 12.1798 0.0110416ZM9.71905 1.6962C10.226 1.88638 10.9758 2.27201 11.4934 2.60481C11.7415 2.76858 11.9475 2.90064 11.9528 2.90592C11.9739 2.92177 10.5006 7.33277 10.4531 7.41729C10.4319 7.45427 10.1362 7.60218 9.80354 7.73953C8.76325 8.17271 7.14737 9.00736 6.24966 9.57788C6.05427 9.70467 5.86945 9.80504 5.84305 9.80504C5.81136 9.80504 5.13544 9.41941 4.33806 8.94397C3.12351 8.22553 2.88588 8.06705 2.88588 7.96668C2.88588 7.79764 3.5354 6.17587 3.84696 5.56309C4.07403 5.12463 4.1902 4.96615 4.61793 4.53826C5.89057 3.27571 7.49589 2.24559 9.09065 1.66979C9.23851 1.61696 9.35997 1.56942 9.35997 1.56942C9.36525 1.56413 9.52367 1.62224 9.71905 1.6962ZM19.2559 2.26144C21.1253 3.22288 22.8468 4.75484 23.9874 6.48755C24.3148 6.97883 24.9009 8.03008 24.9062 8.12516C24.9062 8.14629 24.6844 8.03008 24.4204 7.86631C23.9293 7.5652 22.9999 7.1109 22.5088 6.926C22.2712 6.8362 22.0916 6.64603 20.3754 4.7073C19.3457 3.54512 18.448 2.53614 18.3846 2.46218C18.2948 2.35653 18.2737 2.28257 18.2948 2.08183L18.316 1.83883L18.4797 1.89694C18.5747 1.92864 18.9232 2.0924 19.2559 2.26144ZM19.4671 5.08237C20.555 6.31322 21.4527 7.34333 21.4632 7.37503C21.4949 7.45955 21.2362 8.2044 20.6975 9.59373C20.4177 10.3069 20.1906 10.8933 20.1853 10.8985C20.18 10.9038 18.8651 11.0412 17.2545 11.2102C15.042 11.4374 14.3238 11.4955 14.2921 11.4479C14.2234 11.3264 12.1006 8.93869 11.6676 8.48438L11.2293 8.03008L12.0373 5.61063C12.5336 4.11565 12.8769 3.17534 12.9297 3.14364C12.9719 3.11723 13.4947 3.04856 14.0862 2.99573C15.5647 2.84781 15.5278 2.8531 16.5628 2.84253L17.4869 2.83725L19.4671 5.08237ZM3.86808 9.73636L5.36779 10.6238V11.1838C5.36779 12.2192 5.51565 13.6983 5.74271 14.9662L5.84833 15.5578L4.72883 17.3169C4.11627 18.2837 3.57765 19.1078 3.54068 19.15C3.47731 19.2187 3.40866 19.187 3.02318 18.9229C2.59016 18.6323 1.72413 17.9086 1.63436 17.7712C1.49179 17.5388 1.13798 16.16 1.01125 15.3254C0.757774 13.6983 0.926755 11.1521 1.33865 10.402C1.51819 10.0692 2.31029 8.85417 2.34197 8.85417C2.35781 8.85417 3.0443 9.25036 3.86808 9.73636ZM20.7715 12.6154C21.4157 13.6032 21.8857 14.3956 22.3029 15.1933L22.6197 15.8008L21.1728 18.495C20.3754 19.9741 19.7206 21.1944 19.7101 21.1997C19.6784 21.2367 18.7701 21.3793 17.9886 21.4744C16.9852 21.6012 14.9839 21.7174 14.9258 21.6593C14.9047 21.6328 14.2446 20.5024 13.4578 19.1394L12.032 16.6725L12.7713 15.2831C13.1779 14.5224 13.6584 13.6032 13.8485 13.2387C14.0333 12.8742 14.2076 12.5467 14.234 12.5045C14.271 12.4464 15.005 12.3565 17.1806 12.1294C18.7701 11.9604 20.1114 11.823 20.1589 11.8177C20.217 11.8124 20.4282 12.0924 20.7715 12.6154ZM26.0152 15.1194C25.6614 17.8505 24.3834 20.4601 22.4454 22.3988C21.9755 22.869 20.9933 23.7142 20.9563 23.6772C20.951 23.6667 20.9088 23.4606 20.8665 23.2176C20.8243 22.9746 20.7292 22.5256 20.65 22.2192L20.5127 21.6645L22.0071 18.8753L23.5068 16.0861L24.2725 15.6899C24.6897 15.4733 25.26 15.1458 25.5399 14.9609C25.8145 14.776 26.0468 14.6281 26.0574 14.6386C26.068 14.6439 26.0468 14.8658 26.0152 15.1194ZM7.45893 16.5615C8.53618 16.8151 9.7613 17.0528 10.6379 17.1796C11.224 17.2641 11.298 17.2852 11.3825 17.4067C11.4353 17.4807 12.0742 18.5795 12.8082 19.8526L14.139 22.1558L13.3733 23.2071C12.9508 23.7829 12.56 24.3111 12.502 24.3851L12.4016 24.5119L9.47614 23.9942C7.87082 23.7142 6.51369 23.4659 6.46616 23.4554C6.36055 23.4237 5.73215 22.6154 5.22521 21.8494C4.76579 21.1627 4.15324 20.1062 4.15324 20.0111C4.15324 19.8949 6.4292 16.3555 6.50313 16.3555C6.54009 16.3555 6.96783 16.4506 7.45893 16.5615ZM9.90387 24.9926C12.0109 25.3677 12.1851 25.4046 12.6287 25.6054C12.8927 25.7269 13.2729 25.8854 13.4736 25.9593L13.8432 26.102L13.4472 26.1178C12.3541 26.1653 10.7171 25.8906 9.40749 25.4416C8.5309 25.1405 7.35332 24.5964 7.58038 24.5964C7.61735 24.5964 8.66292 24.776 9.90387 24.9926Z" fill="black"/>
<circle cx="13.5" cy="13.5" r="12.5" stroke="black" stroke-width="2"/>
</svg>
