<svg width="405" height="58" viewBox="0 0 405 58" fill="none" xmlns="http://www.w3.org/2000/svg">
<path d="M257.559 3.77992L267.914 28.8966H247.015L257.559 3.77992ZM245.714 32.1205H269.219L274.178 43.9692H278.085L259.42 0.0610352H255.885L236.844 43.9692H240.751L245.714 32.1205Z" fill="white"/>
<path d="M294.717 13.5615H286.469V0.0263672H283.057V13.5615H277.043V16.4131H283.118V36.5231C283.118 42.1693 286.653 43.9696 290.188 43.9696C291.927 43.9696 293.416 43.6586 294.779 43.1593L294.595 40.2464C293.539 40.7413 292.238 41.0523 291.06 41.0523C288.331 41.0523 286.469 39.874 286.469 35.7171V16.4131H294.717L294.717 13.5615Z" fill="white"/>
<path d="M300.955 44.0129H304.367V28.5066C304.367 20.4469 308.892 16.3513 313.482 16.3513C319.435 16.3513 320.863 20.8805 320.863 26.2114V44.0129H324.271V28.1343C324.271 21.7478 327.25 16.3513 333.264 16.3513C339.094 16.3513 341.14 21.1258 341.14 26.8334V44.0129H344.49V25.5937C344.49 18.7692 341.205 13.561 333.763 13.561C328.989 13.561 325.265 16.0403 323.404 20.4469H323.281C321.669 15.6066 318.384 13.561 314.039 13.561C309.947 13.561 305.979 16.106 304.305 20.0746H304.178C304.178 18.5239 304.056 15.173 303.933 13.561H300.705C300.893 15.484 300.955 19.3299 300.955 20.9419L300.955 44.0129Z" fill="white"/>
<path d="M376.703 28.7563C376.703 35.6378 372.178 40.973 364.92 40.973C357.728 40.973 353.198 35.6378 353.198 28.7563C353.198 21.8705 357.728 16.4739 364.92 16.4739C372.178 16.4739 376.703 21.8705 376.703 28.7563ZM380.177 28.7563C380.177 19.9475 373.913 13.561 364.92 13.561C355.989 13.561 349.729 19.9475 349.729 28.7563C349.729 37.4994 355.989 44.0129 364.92 44.0129C373.913 44.0129 380.177 37.4994 380.177 28.7563Z" fill="white"/>
<path d="M404.444 18.4934C402.582 15.3308 398.924 13.5918 394.706 13.5918C389.682 13.5918 384.846 16.0754 384.846 21.6559C384.846 32.3833 401.649 27.6088 401.649 35.4846C401.649 39.5145 398.114 41.1264 394.518 41.1264C390.983 41.1264 387.882 39.2692 386.208 36.6629L383.541 38.5858C386.024 42.2434 390.177 43.9824 394.518 43.9824C399.792 43.9824 405 41.3761 405 35.2349C405 30.5217 401.465 28.2921 395.324 26.9255C390.549 25.8742 388.07 24.7572 388.07 21.4063C388.07 17.81 391.544 16.3821 394.584 16.3821C397.807 16.3821 400.409 17.9327 401.837 20.355L404.444 18.4934Z" fill="white"/>
<path d="M0 44.0218H6.48724C18.5988 44.0218 28.472 34.1485 28.472 22.037C28.472 9.92544 18.5988 0.0478516 6.48724 0.0478516H0V44.0218Z" fill="white"/>
<path d="M62.5465 0.0478516H56.0592C43.9477 0.0478516 34.0745 9.92544 34.0745 22.037C34.0745 34.1485 43.9477 44.0218 56.0592 44.0218H62.5465V0.0478516Z" fill="white"/>
<path d="M107.063 22.037C107.063 13.5961 100.182 6.71468 91.7412 6.71468H82.5294V37.3549H91.7412C100.182 37.3549 107.063 30.4735 107.063 22.037ZM113.73 22.037C113.73 34.1573 103.866 44.0218 91.7455 44.0218H75.8625V0.0478516H91.7455C103.866 0.0478516 113.73 9.9123 113.73 22.037Z" fill="white"/>
<path d="M141.532 28.77C141.532 23.7326 137.388 19.5845 132.346 19.5845C127.305 19.5845 123.161 23.6757 123.161 28.77C123.161 33.8117 127.248 37.9599 132.346 37.9599C137.388 37.9599 141.532 33.8687 141.532 28.77ZM147.625 28.7831C147.625 37.1845 140.792 44.0178 132.39 44.0178C123.989 44.0178 117.156 37.1845 117.156 28.7831C117.156 20.3816 123.989 13.5483 132.39 13.5483C140.792 13.5483 147.625 20.3816 147.625 28.7831Z" fill="white"/>
<path d="M151.896 44.0177H158.563V0H151.896V44.0177Z" fill="white"/>
<path d="M188.739 28.7742C188.739 23.7325 184.595 19.5887 179.553 19.5887C175.515 19.5887 172.063 22.2125 170.841 25.8745C170.539 26.7856 170.368 27.758 170.368 28.7742C170.368 29.7861 170.539 30.7541 170.841 31.6652C172.054 35.3053 175.48 37.9598 179.553 37.9598C184.595 37.9598 188.739 33.8685 188.739 28.7742ZM194.788 28.7742C194.788 37.1757 187.955 44.009 179.553 44.009C176.316 44.009 173.311 42.9927 170.841 41.2625V44.0177H164.161V0H170.841V16.286C173.311 14.5558 176.316 13.5395 179.553 13.5395C187.955 13.5395 194.788 20.3728 194.788 28.7742Z" fill="white"/>
<path d="M219.195 13.5874L210.513 33.1105L201.827 13.5874H194.547L206.869 41.2885C206.869 41.2885 203.855 48.078 203.851 48.0911C203.049 49.8827 200.942 50.693 199.155 49.8958L198.2 49.4709L195.511 55.507L195.519 55.5157L197.828 56.5451C202.164 58.4768 207.276 56.51 209.212 52.1648C209.23 52.1297 224.995 16.8989 226.475 13.5874L219.195 13.5874Z" fill="white"/>
</svg>
