<svg width="215" height="26" viewBox="0 0 215 26" fill="none" xmlns="http://www.w3.org/2000/svg">
<rect width="215" height="26" fill="#EA1C26"/>
<path d="M190.203 16.3252V15.4322L193.921 12.1532C194.721 11.4506 195.277 10.865 195.59 10.3966C195.902 9.92815 196.058 9.4402 196.058 8.93273C196.058 8.34719 195.858 7.87388 195.458 7.51279C195.058 7.15171 194.57 6.97117 193.994 6.97117C193.438 6.97117 192.945 7.11267 192.516 7.39569C192.096 7.6787 191.671 8.12273 191.242 8.72779L190.393 8.11297C190.891 7.37129 191.418 6.82478 191.974 6.47346C192.53 6.11237 193.233 5.93183 194.082 5.93183C194.999 5.93183 195.756 6.20996 196.351 6.76623C196.956 7.31273 197.258 8.0105 197.258 8.85954C197.258 9.56219 197.068 10.1868 196.688 10.7333C196.307 11.2798 195.634 11.9824 194.667 12.8412L191.93 15.2712H197.361V16.3252H190.203ZM199.39 16.3252V14.7881H200.737V16.3252H199.39ZM203.742 16.3252V7.20538L201.81 7.80556L201.532 6.8687L204.035 6.00502H204.884V16.3252H203.742Z" fill="white"/>
<path d="M191.153 20.937C190.75 20.937 190.414 20.7992 190.146 20.5237C189.877 20.2481 189.743 19.9123 189.743 19.5162C189.743 19.1235 189.877 18.7877 190.146 18.5087C190.418 18.2297 190.755 18.0902 191.158 18.0902C191.599 18.0902 191.963 18.247 192.249 18.5604L191.861 18.9789C191.644 18.7516 191.408 18.6379 191.153 18.6379C190.929 18.6379 190.742 18.724 190.59 18.8962C190.442 19.065 190.368 19.2716 190.368 19.5162C190.368 19.7642 190.444 19.9726 190.595 20.1414C190.75 20.3101 190.947 20.3945 191.184 20.3945C191.436 20.3945 191.672 20.2808 191.892 20.0535L192.269 20.4255C192.121 20.5908 191.959 20.7183 191.784 20.8078C191.611 20.8939 191.401 20.937 191.153 20.937ZM192.844 20.875V17.1034H193.469V18.5707C193.686 18.2504 193.971 18.0902 194.322 18.0902C194.625 18.0902 194.863 18.185 195.035 18.3744C195.207 18.5638 195.293 18.8187 195.293 19.139V20.875H194.668V19.325C194.668 19.1115 194.616 18.9479 194.513 18.8342C194.413 18.7171 194.27 18.6586 194.084 18.6586C193.902 18.6586 193.754 18.7188 193.64 18.8394C193.526 18.9599 193.469 19.1253 193.469 19.3354V20.875H192.844ZM198.337 20.875H197.717V20.5392C197.496 20.8009 197.202 20.9318 196.833 20.9318C196.561 20.9318 196.331 20.8578 196.141 20.7097C195.955 20.5581 195.862 20.348 195.862 20.0794C195.862 19.7866 195.964 19.5644 196.167 19.4129C196.37 19.2613 196.637 19.1855 196.968 19.1855C197.233 19.1855 197.484 19.2234 197.722 19.2992V19.2475C197.722 19.0581 197.664 18.9134 197.546 18.8135C197.433 18.7137 197.267 18.6637 197.05 18.6637C196.802 18.6637 196.542 18.7206 196.27 18.8342L196.1 18.3331C196.437 18.1815 196.783 18.1057 197.138 18.1057C197.534 18.1057 197.832 18.2056 198.032 18.4054C198.235 18.6052 198.337 18.8893 198.337 19.2579V20.875ZM197.732 19.8882V19.7332C197.546 19.6609 197.338 19.6247 197.107 19.6247C196.911 19.6247 196.758 19.6626 196.647 19.7384C196.537 19.8141 196.482 19.9209 196.482 20.0587C196.482 20.1827 196.532 20.2808 196.632 20.3532C196.732 20.4255 196.858 20.4617 197.009 20.4617C197.219 20.4617 197.391 20.4083 197.526 20.3015C197.664 20.1947 197.732 20.057 197.732 19.8882ZM199.08 20.875V18.1471H199.706V18.5707C199.923 18.2504 200.207 18.0902 200.558 18.0902C200.861 18.0902 201.099 18.185 201.271 18.3744C201.443 18.5638 201.529 18.8187 201.529 19.139V20.875H200.904V19.325C200.904 19.1115 200.853 18.9479 200.749 18.8342C200.649 18.7171 200.506 18.6586 200.32 18.6586C200.138 18.6586 199.99 18.7188 199.876 18.8394C199.762 18.9599 199.706 19.1253 199.706 19.3354V20.875H199.08ZM203.535 20.937C203.135 20.937 202.801 20.8044 202.532 20.5392C202.267 20.274 202.134 19.9312 202.134 19.511C202.134 19.1149 202.26 18.7791 202.512 18.5036C202.763 18.228 203.082 18.0902 203.467 18.0902C203.881 18.0902 204.201 18.2315 204.428 18.5139C204.659 18.7929 204.775 19.1408 204.775 19.5575C204.775 19.6333 204.771 19.6919 204.764 19.7332H202.76C202.794 19.9502 202.882 20.1207 203.023 20.2447C203.164 20.3652 203.338 20.4255 203.545 20.4255C203.814 20.4255 204.06 20.317 204.284 20.1L204.651 20.4255C204.368 20.7665 203.996 20.937 203.535 20.937ZM202.754 19.3199H204.155C204.134 19.1098 204.063 18.9375 203.943 18.8032C203.822 18.6689 203.662 18.6017 203.462 18.6017C203.273 18.6017 203.114 18.6689 202.987 18.8032C202.859 18.9341 202.782 19.1063 202.754 19.3199ZM205.439 20.875V17.1034H206.064V20.875H205.439Z" fill="white"/>
<g clip-path="url(#clip0_1_294)">
<path d="M10.0254 13.0002V20.9736H21.3066H32.5879V13.0002V5.02679H21.3066H10.0254V13.0002ZM16.056 7.1743C17.4071 7.48526 18.5574 8.39423 19.319 9.75769C20.5293 11.9185 20.3937 14.7809 18.9878 16.7849C18.3461 17.6966 17.4854 18.369 16.5568 18.6826C15.9777 18.8793 15.7403 18.9005 14.0892 18.9005H12.6859V12.9976V7.09722L14.2457 7.10785C15.7299 7.11583 15.816 7.12114 16.056 7.1743ZM29.9273 13.0029V18.9032L28.3832 18.8952C26.899 18.8846 26.826 18.8819 26.5547 18.8261C24.4471 18.377 22.8404 16.4049 22.5039 13.8507C22.41 13.1464 22.4543 12.2162 22.6134 11.4986C23.0986 9.29789 24.7158 7.53044 26.5573 7.18227C26.9538 7.10519 26.8781 7.10785 28.4745 7.10519L29.9273 7.09988V13.0029Z" fill="white"/>
<path d="M54.4972 6.57113C53.0521 6.65884 51.9332 6.99638 51.1532 7.58109C50.9081 7.76714 50.5429 8.17113 50.3812 8.43425C50.1151 8.87013 49.9325 9.44156 49.836 10.1166C49.7943 10.4329 49.7891 10.6748 49.7891 13.0934C49.7891 15.7007 49.7891 15.7273 49.8491 16.102C49.956 16.7984 50.1725 17.4123 50.4568 17.8402C50.7907 18.3479 51.3984 18.8024 52.0975 19.0681C52.9191 19.3791 53.9207 19.5146 55.4232 19.5146C56.5109 19.5146 57.1369 19.4642 57.9011 19.31C59.8235 18.922 60.8042 17.8402 61.0312 15.8495C61.0625 15.5731 61.0703 15.0655 61.0703 13.0721C61.0703 10.5233 61.0651 10.3691 60.9529 9.79505C60.7912 8.98176 60.4756 8.34654 59.9774 7.84422C59.5679 7.4296 59.1375 7.17445 58.488 6.95651C57.489 6.62163 56.0127 6.4781 54.4972 6.57113ZM56.0596 8.53525C56.7039 8.58043 57.0273 8.65219 57.3794 8.83292C57.8542 9.07744 58.1176 9.50269 58.2454 10.2256C58.2872 10.4648 58.2924 10.7093 58.2924 12.9738C58.2924 14.898 58.2846 15.5093 58.2585 15.6847C58.0863 16.8223 57.6559 17.2794 56.5708 17.4814C56.1874 17.5532 54.7189 17.5532 54.3042 17.4841C53.2921 17.3087 52.8409 16.8834 52.6374 15.9133C52.58 15.6475 52.58 15.6103 52.58 13.0004V10.3558L52.64 10.0768C52.893 8.91 53.5477 8.53259 55.371 8.51398C55.5431 8.51133 55.8535 8.52196 56.0596 8.53525Z" fill="white"/>
<path d="M141.97 6.56824C140.88 6.66924 139.98 6.97223 139.343 7.45861C139.059 7.67655 138.665 8.09648 138.48 8.37821C137.998 9.11974 137.713 10.0367 137.557 11.3656C137.489 11.9476 137.489 14.026 137.557 14.6081C137.713 15.9423 137.998 16.8593 138.483 17.5981C138.671 17.8825 139.062 18.2971 139.349 18.5177C139.915 18.951 140.799 19.2726 141.722 19.3789C142.424 19.4586 143.345 19.4373 144.007 19.3257C146.24 18.951 147.419 17.5981 147.774 14.9935C147.862 14.353 147.889 13.8799 147.889 12.9868C147.889 11.8466 147.823 11.0785 147.659 10.3157C147.174 8.0513 145.984 6.91907 143.757 6.60811C143.399 6.55761 142.34 6.53635 141.97 6.56824ZM143.517 7.99283C144.902 8.20013 145.669 9.01608 145.984 10.6134C146.084 11.1104 146.128 11.5357 146.162 12.2985C146.209 13.4174 146.144 14.5603 145.987 15.3603C145.684 16.8779 144.985 17.6752 143.715 17.9463C143.165 18.0633 142.299 18.0659 141.722 17.9543C140.246 17.6699 139.518 16.6812 139.281 14.6347C139.223 14.1403 139.2 12.3968 139.242 11.8254C139.32 10.7835 139.461 10.127 139.727 9.5503C140.202 8.5297 140.974 8.04598 142.309 7.93967C142.547 7.92107 143.246 7.9503 143.517 7.99283Z" fill="white"/>
<path d="M37.0615 6.78612C37.0537 6.80473 37.0511 9.60606 37.0537 13.0134L37.0615 19.2061H40.6481C44.5267 19.2061 44.5267 19.2061 45.2075 19.0599C46.8273 18.7117 47.6594 17.7283 47.9359 15.828C48.0219 15.2512 48.035 14.7888 48.0246 12.6944C48.0141 10.3981 48.0063 10.3104 47.8341 9.60871C47.6437 8.82998 47.3568 8.2931 46.8951 7.84659C46.3161 7.28579 45.5362 6.97217 44.3363 6.81802C44.0442 6.77815 43.5538 6.77283 40.5359 6.7622C37.6954 6.75157 37.072 6.75689 37.0615 6.78612ZM43.7494 8.66519C44.6415 8.89908 45.1527 9.59011 45.2649 10.709C45.2858 10.9004 45.291 11.6685 45.2831 13.0798C45.2753 14.9057 45.2675 15.1954 45.2284 15.3921C45.1606 15.7376 45.0927 15.9529 44.9649 16.208C44.7641 16.612 44.5059 16.8805 44.1302 17.0665C43.7233 17.2685 43.8042 17.2632 41.7123 17.2712L39.8395 17.2818V12.9336V8.5828L41.6862 8.59609C43.4808 8.60672 43.5355 8.60672 43.7494 8.66519Z" fill="white"/>
<path d="M63.0927 6.78602C63.0849 6.80462 63.0823 9.60595 63.0849 13.0133L63.0927 19.2059L67.0131 19.2139L70.9309 19.2192V18.1694V17.1196H68.3877H65.8446V11.9368V6.75412H64.4752C63.4031 6.75412 63.1006 6.76209 63.0927 6.78602Z" fill="white"/>
<path d="M72.4434 12.9896V19.2222L75.7117 19.2115C78.4818 19.2009 79.0295 19.1929 79.319 19.1584C80.4146 19.0228 80.9858 18.7836 81.5205 18.2388C81.9822 17.7683 82.2769 17.173 82.3969 16.4713C82.4491 16.1657 82.4335 15.3125 82.3682 14.9564C82.2848 14.4966 82.1204 14.0554 81.9144 13.7471C81.4657 13.0773 80.6754 12.6866 79.6555 12.6361L79.3425 12.6202L79.6947 12.5484C80.4902 12.3863 80.9284 12.1497 81.2936 11.6899C81.5049 11.4215 81.6509 11.0627 81.7318 10.6082C81.7892 10.2919 81.7814 9.30057 81.7188 9.01353C81.5988 8.45805 81.3979 8.06203 81.0536 7.7112C80.5998 7.24875 80.052 6.97499 79.3295 6.85007C78.8521 6.76768 78.32 6.75439 75.3856 6.75439H72.4434V12.9896ZM78.2392 8.59094C78.6357 8.67599 79.0034 8.97898 79.1938 9.38562C79.3321 9.67798 79.3816 9.93579 79.3816 10.3557C79.3816 11.581 78.9408 11.8893 77.1071 11.9531C76.8593 11.961 76.6298 11.9717 76.5985 11.9796L76.5385 11.9903V12.7052V13.4175L77.3419 13.4335C78.4061 13.4547 78.7009 13.4973 79.1156 13.6939C79.4912 13.8693 79.7494 14.1856 79.8642 14.6082C79.9294 14.8527 79.9477 15.4853 79.8929 15.7458C79.8094 16.1577 79.6477 16.4713 79.3686 16.761C79.1495 16.9896 78.9043 17.1411 78.5861 17.2501C78.2157 17.375 78.0566 17.3856 76.575 17.3856H75.2082V12.9737V8.5617H76.6559C77.6106 8.5617 78.1479 8.57233 78.2392 8.59094Z" fill="white"/>
<path d="M82.6953 6.77853C82.6953 6.79182 82.9457 7.2782 83.2535 7.86026C83.5587 8.44498 84.4794 10.1938 85.2933 11.7513L86.7774 14.5819L86.7905 16.8941L86.8035 19.2064L88.2851 19.2144L89.764 19.2197V16.95V14.6802L91.136 12.1446C91.8898 10.752 92.8471 8.98983 93.2619 8.22969C93.674 7.4669 94.0209 6.82371 94.0313 6.79979C94.047 6.75727 93.9661 6.75461 92.735 6.75993L91.4229 6.7679L89.9101 9.56657C88.5616 12.0569 88.392 12.3599 88.3607 12.3174C88.3398 12.2908 87.6773 11.031 86.887 9.51873L85.4472 6.7679L84.0725 6.75993C83.2692 6.75727 82.6953 6.76524 82.6953 6.77853Z" fill="white"/>
<path d="M102.341 6.90562C102.312 6.99067 101.342 9.77339 100.184 13.093C99.0257 16.4126 98.0711 19.1475 98.0659 19.1741C98.0528 19.2166 98.105 19.2192 98.9005 19.2192H99.7483L100.012 18.4272C100.158 17.994 100.39 17.3003 100.528 16.8857L100.779 16.1362H103.423C104.876 16.1362 106.066 16.1415 106.066 16.1442C106.066 16.1548 107.015 18.9481 107.073 19.105L107.114 19.2192H107.959C108.424 19.2192 108.805 19.2139 108.805 19.2086C108.805 19.198 104.555 7.06508 104.482 6.86575L104.441 6.75412H103.418H102.393L102.341 6.90562ZM103.703 9.07173C103.841 9.5209 104.323 10.9933 104.775 12.3408C105.226 13.691 105.596 14.802 105.596 14.8126C105.596 14.8259 104.615 14.8339 103.418 14.8339C102.221 14.8339 101.24 14.8285 101.24 14.8206C101.24 14.8126 101.506 14.0126 101.83 13.0452C102.654 10.5893 102.904 9.82655 103.16 8.99997C103.429 8.12821 103.403 8.20263 103.429 8.23186C103.442 8.24515 103.564 8.62256 103.703 9.07173Z" fill="white"/>
<path d="M109.96 11.2779C109.97 16.1284 109.965 15.8919 110.095 16.4872C110.322 17.5132 110.86 18.2972 111.689 18.8022C112.417 19.246 113.544 19.4666 114.882 19.4215C115.909 19.3896 116.616 19.246 117.245 18.9431C117.6 18.773 117.863 18.5789 118.171 18.2653C118.661 17.7683 118.927 17.2607 119.107 16.4819C119.238 15.9158 119.238 15.8813 119.238 11.1583V6.75435L118.424 6.75967L117.607 6.76764L117.594 11.3656C117.579 16.3916 117.589 16.0487 117.433 16.5218C117.234 17.1331 116.762 17.6407 116.168 17.8879C115.398 18.2095 113.836 18.2148 113.064 17.9012C112.427 17.6407 111.971 17.1464 111.754 16.4793C111.606 16.0168 111.613 16.2826 111.603 11.3178L111.592 6.75435H110.771H109.949L109.96 11.2779Z" fill="white"/>
<path d="M121.886 6.7864C121.878 6.80501 121.875 9.60634 121.878 13.0136L121.886 19.2063L124.011 19.2143C126.748 19.2249 127.267 19.1984 127.989 19.007C128.706 18.8183 129.27 18.4887 129.789 17.9545C130.78 16.9339 131.289 15.2515 131.289 12.9871C131.289 11.4163 131.038 10.1007 130.556 9.12261C130.334 8.67876 130.097 8.33325 129.789 8.01697C129.022 7.2276 128.138 6.86614 126.75 6.78109C126.085 6.74122 121.901 6.74654 121.886 6.7864ZM127.089 8.1472C127.655 8.26149 128.107 8.4874 128.448 8.83026C129.022 9.40434 129.356 10.2974 129.507 11.6475C129.57 12.2269 129.57 13.7472 129.507 14.3293C129.382 15.4615 129.119 16.2801 128.693 16.8595C128.313 17.3751 127.807 17.6808 127.087 17.8269C126.899 17.8668 126.628 17.8748 125.206 17.8827L123.542 17.8934V12.9871V8.08075L125.206 8.09139C126.633 8.09936 126.899 8.10733 127.089 8.1472Z" fill="white"/>
<path d="M133.571 6.78602C133.563 6.80462 133.561 9.60595 133.563 13.0133L133.571 19.2059L134.388 19.2139L135.201 19.2192V12.9867V6.75412H134.393C133.769 6.75412 133.579 6.76209 133.571 6.78602Z" fill="white"/>
<path d="M149.234 6.92688V7.07306H149.547H149.86V7.97672V8.88037H150.017H150.173V7.97672V7.07572L150.494 7.06775L150.813 7.05977L150.82 6.91891L150.828 6.7807H150.033H149.234V6.92688Z" fill="white"/>
<path d="M151.086 7.83103V8.88086H151.242H151.399L151.404 8.02505L151.412 7.17189L151.54 7.47488C151.613 7.64232 151.738 7.92405 151.819 8.10212L151.97 8.42903H152.127H152.286L152.406 8.16857C152.471 8.0277 152.596 7.74332 152.682 7.53867C152.768 7.33402 152.844 7.16126 152.849 7.15594C152.854 7.15063 152.852 7.53601 152.841 8.01176L152.826 8.88086H153.011H153.199V7.83103V6.78119H152.956H152.711L152.429 7.40578C152.273 7.74863 152.14 8.03036 152.132 8.03036C152.124 8.03036 151.991 7.75129 151.84 7.41109L151.563 6.79448L151.323 6.78651L151.086 6.77853V7.83103Z" fill="white"/>
</g>
<path d="M170.191 8.35519L171.644 9.81362L170.192 11.2708L170.191 8.35519ZM170.191 17.2828L171.644 15.8246L170.192 14.3671L170.191 17.2828ZM168.64 12.819L165.5 9.65824L166.41 8.74468L168.912 11.2574V5.23595L173.462 9.80315L170.458 12.819L173.463 15.8357L168.912 20.403V14.3812L166.41 16.8941L165.499 15.98L168.64 12.819ZM169.482 21.6392C173.318 21.6392 175.962 19.8094 175.962 12.8193C175.962 5.82941 173.318 4 169.482 4C165.645 4 163 5.82971 163 12.8193C163 19.8095 165.645 21.6392 169.482 21.6392Z" fill="#0060A9"/>
<path d="M170.191 8.35519L171.644 9.81362L170.192 11.2708L170.191 8.35519ZM170.191 17.2828L171.644 15.8246L170.192 14.3671L170.191 17.2828ZM168.64 12.819L165.5 9.65824L166.41 8.74468L168.912 11.2574V5.23595L173.462 9.80315L170.458 12.819L173.463 15.8357L168.912 20.403V14.3812L166.41 16.8941L165.499 15.98L168.64 12.819ZM169.482 21.6392C173.318 21.6392 175.962 19.8094 175.962 12.8193C175.962 5.82941 173.318 4 169.482 4C165.645 4 163 5.82971 163 12.8193C163 19.8095 165.645 21.6392 169.482 21.6392Z" fill="white"/>
<defs>
<clipPath id="clip0_1_294">
<rect width="143.2" height="16" fill="white" transform="translate(10 5)"/>
</clipPath>
</defs>
</svg>
