<svg width="575" height="64" viewBox="0 0 575 64" fill="none" xmlns="http://www.w3.org/2000/svg">
<path d="M0 32V64H45.2754H90.5508V32V-6.10352e-05H45.2754H0V32ZM24.2027 8.61861C29.6253 9.86662 34.2418 13.5146 37.2986 18.9866C42.1559 27.6586 41.6115 39.1466 35.9691 47.1893C33.3939 50.848 29.9394 53.5467 26.2126 54.8053C23.8887 55.5947 22.9361 55.68 16.3096 55.68H10.6777V31.9893V8.30928L16.9377 8.35195C22.8942 8.38395 23.2396 8.40528 24.2027 8.61861ZM79.8732 32.0106V55.6907L73.6759 55.6587C67.7195 55.616 67.4264 55.6053 66.3376 55.3813C57.8793 53.5787 51.4308 45.664 50.0804 35.4133C49.7035 32.5866 49.8815 28.8533 50.52 25.9733C52.4671 17.1413 58.9575 10.0479 66.3481 8.65062C67.9393 8.34128 67.6357 8.35195 74.0423 8.34128L79.8732 8.31995V32.0106Z" fill="black"/>
<path d="M178.485 6.19707C172.686 6.54907 168.195 7.90374 165.065 10.2504C164.081 10.9971 162.615 12.6184 161.966 13.6744C160.898 15.4238 160.166 17.7171 159.778 20.4264C159.611 21.6958 159.59 22.6664 159.59 32.3731C159.59 42.8371 159.59 42.9438 159.831 44.4478C160.26 47.2425 161.129 49.7065 162.27 51.4238C163.61 53.4611 166.049 55.2851 168.854 56.3518C172.152 57.5998 176.172 58.1438 182.201 58.1438C186.567 58.1438 189.079 57.9411 192.146 57.3225C199.861 55.7651 203.797 51.4238 204.708 43.4344C204.834 42.3251 204.865 40.2878 204.865 32.2878C204.865 22.0584 204.844 21.4398 204.394 19.1358C203.745 15.8718 202.478 13.3224 200.479 11.3064C198.836 9.64241 197.108 8.61841 194.502 7.74374C190.492 6.39974 184.567 5.82374 178.485 6.19707ZM184.756 14.0797C187.341 14.2611 188.639 14.5491 190.053 15.2744C191.958 16.2558 193.015 17.9624 193.528 20.8638C193.696 21.8238 193.717 22.8051 193.717 31.8931C193.717 39.6158 193.685 42.0691 193.58 42.7731C192.89 47.3385 191.162 49.1731 186.807 49.9838C185.269 50.2718 179.375 50.2718 177.71 49.9945C173.649 49.2905 171.838 47.5838 171.021 43.6904C170.791 42.6238 170.791 42.4744 170.791 31.9998V21.3864L171.032 20.2664C172.047 15.5838 174.675 14.0691 181.992 13.9944C182.683 13.9837 183.929 14.0264 184.756 14.0797Z" fill="black"/>
<path d="M529.54 6.18618C525.164 6.59151 521.552 7.80751 518.998 9.75952C517.857 10.6342 516.276 12.3195 515.533 13.4502C513.596 16.4262 512.455 20.1062 511.827 25.4395C511.555 27.7755 511.555 36.1169 511.827 38.4529C512.455 43.8075 513.596 47.4876 515.543 50.4529C516.297 51.5942 517.867 53.2582 519.019 54.1436C521.291 55.8822 524.839 57.1729 528.545 57.5996C531.361 57.9196 535.056 57.8342 537.715 57.3862C546.676 55.8822 551.408 50.4529 552.832 39.9995C553.187 37.4289 553.292 35.5302 553.292 31.9462C553.292 27.3702 553.03 24.2875 552.371 21.2262C550.424 12.1382 545.65 7.59418 536.71 6.34618C535.276 6.14351 531.026 6.05818 529.54 6.18618ZM535.747 11.9035C541.306 12.7355 544.384 16.0102 545.65 22.4209C546.048 24.4155 546.226 26.1222 546.362 29.1835C546.551 33.6742 546.289 38.2609 545.661 41.4715C544.446 47.5622 541.641 50.7622 536.543 51.8502C534.334 52.3196 530.859 52.3302 528.545 51.8822C522.62 50.7409 519.699 46.7729 518.747 38.5595C518.516 36.5755 518.422 29.5782 518.59 27.2849C518.904 23.1035 519.469 20.4689 520.537 18.1542C522.442 14.0582 525.541 12.1169 530.9 11.6902C531.853 11.6155 534.659 11.7329 535.747 11.9035Z" fill="black"/>
<path d="M108.504 7.06184C108.473 7.13651 108.462 18.3792 108.473 32.0539L108.504 56.9072H122.898C138.464 56.9072 138.464 56.9072 141.197 56.3206C147.697 54.9232 151.037 50.9766 152.146 43.3499C152.492 41.0352 152.544 39.1792 152.502 30.7739C152.46 21.5579 152.429 21.2059 151.738 18.3899C150.974 15.2645 149.822 13.1098 147.97 11.3178C145.646 9.06718 142.516 7.80851 137.7 7.18984C136.528 7.02984 134.56 7.00851 122.448 6.96584C111.048 6.92317 108.546 6.94451 108.504 7.06184ZM135.345 14.6032C138.925 15.5419 140.977 18.3152 141.427 22.8059C141.511 23.5739 141.532 26.6565 141.5 32.3205C141.469 39.6485 141.437 40.8112 141.28 41.6005C141.008 42.9872 140.736 43.8512 140.223 44.8752C139.417 46.4965 138.381 47.5739 136.873 48.3206C135.24 49.1312 135.565 49.1099 127.169 49.1419L119.653 49.1846V31.7339V14.2725L127.064 14.3258C134.267 14.3685 134.486 14.3685 135.345 14.6032Z" fill="black"/>
<path d="M212.977 7.06136C212.945 7.13603 212.935 18.3787 212.945 32.0534L212.977 56.9067L228.711 56.9387L244.434 56.9601V52.7467V48.5334H234.227H224.021V27.7334V6.93336H218.525C214.222 6.93336 213.008 6.96536 212.977 7.06136Z" fill="black"/>
<path d="M250.506 31.9576V56.9709L263.623 56.9283C274.74 56.8856 276.938 56.8536 278.1 56.7149C282.497 56.1709 284.79 55.2109 286.936 53.0243C288.788 51.1363 289.971 48.7469 290.453 45.9309C290.662 44.7043 290.599 41.2803 290.338 39.8509C290.003 38.0056 289.343 36.2349 288.516 34.9976C286.716 32.3096 283.544 30.7416 279.451 30.5389L278.195 30.4749L279.608 30.1869C282.801 29.5362 284.559 28.5869 286.025 26.7416C286.873 25.6642 287.459 24.2242 287.783 22.4002C288.014 21.1309 287.982 17.1522 287.731 16.0002C287.25 13.7709 286.444 12.1816 285.062 10.7736C283.24 8.91756 281.042 7.81889 278.142 7.31756C276.226 6.98689 274.091 6.93356 262.314 6.93356H250.506V31.9576ZM273.766 14.3042C275.358 14.6456 276.834 15.8616 277.598 17.4936C278.153 18.6669 278.352 19.7016 278.352 21.3869C278.352 26.3042 276.582 27.5416 269.223 27.7976C268.229 27.8296 267.307 27.8722 267.182 27.9042L266.941 27.9469V30.8163V33.6749L270.165 33.7389C274.436 33.8243 275.619 33.9949 277.284 34.7843C278.791 35.4883 279.828 36.7576 280.288 38.4536C280.55 39.4349 280.623 41.9736 280.403 43.0189C280.068 44.6723 279.419 45.9309 278.299 47.0936C277.42 48.0109 276.436 48.6189 275.159 49.0563C273.672 49.5576 273.034 49.6003 267.088 49.6003H261.602V31.8936V14.1869H267.412C271.244 14.1869 273.4 14.2296 273.766 14.3042Z" fill="black"/>
<path d="M291.646 7.02936C291.646 7.0827 292.651 9.03469 293.887 11.3707C295.111 13.7174 298.807 20.736 302.073 26.9867L308.029 38.3467L308.082 47.6267L308.134 56.9067L314.08 56.9387L320.016 56.9601V47.8507V38.7414L325.522 28.5654C328.547 22.976 332.389 15.904 334.054 12.8534C335.708 9.79203 337.1 7.21069 337.142 7.11469C337.205 6.94403 336.88 6.93336 331.939 6.95469L326.673 6.98669L320.602 18.2187C315.19 28.2134 314.509 29.4294 314.384 29.2587C314.3 29.1521 311.641 24.096 308.469 18.0267L302.691 6.98669L297.174 6.95469C293.95 6.94403 291.646 6.97603 291.646 7.02936Z" fill="black"/>
<path d="M370.494 7.54136C370.379 7.88269 366.484 19.0507 361.837 32.3734C357.189 45.6961 353.357 56.6721 353.336 56.7787C353.284 56.9494 353.493 56.9601 356.686 56.9601H360.088L361.146 53.7814C361.732 52.0427 362.664 49.2587 363.218 47.5947L364.223 44.5867H374.838C380.669 44.5867 385.443 44.6081 385.443 44.6187C385.443 44.6614 389.253 55.8721 389.483 56.5014L389.651 56.9601H393.043C394.906 56.9601 396.434 56.9387 396.434 56.9174C396.434 56.8747 379.381 8.18136 379.088 7.38136L378.921 6.93336H374.817H370.703L370.494 7.54136ZM375.958 16.2347C376.513 18.0374 378.45 23.9467 380.261 29.3547C382.072 34.7734 383.558 39.2321 383.558 39.2747C383.558 39.3281 379.622 39.3601 374.817 39.3601C370.012 39.3601 366.076 39.3387 366.076 39.3067C366.076 39.2747 367.144 36.0641 368.442 32.1814C371.75 22.3254 372.755 19.264 373.781 15.9467C374.859 12.448 374.754 12.7467 374.859 12.864C374.911 12.9174 375.403 14.432 375.958 16.2347Z" fill="black"/>
<path d="M401.071 25.0879C401.113 44.5546 401.092 43.6053 401.616 45.9946C402.526 50.1119 404.683 53.2586 408.012 55.2853C410.932 57.0666 415.455 57.9519 420.825 57.7706C424.949 57.6426 427.786 57.0666 430.309 55.8506C431.733 55.1679 432.79 54.3893 434.025 53.1306C435.993 51.1359 437.061 49.0986 437.784 45.9733C438.307 43.7013 438.307 43.5626 438.307 24.6079V6.93321L435.041 6.95455L431.764 6.98655L431.712 25.4399C431.649 45.6106 431.691 44.2346 431.063 46.1333C430.267 48.5866 428.373 50.6239 425.986 51.6159C422.898 52.9066 416.627 52.9279 413.528 51.6693C410.974 50.6239 409.142 48.6399 408.273 45.9626C407.677 44.1066 407.708 45.1733 407.666 25.2479L407.624 6.93321H404.327H401.029L401.071 25.0879Z" fill="black"/>
<path d="M448.932 7.06063C448.9 7.1353 448.89 18.378 448.9 32.0527L448.932 56.906L457.463 56.938C468.445 56.9807 470.528 56.874 473.428 56.106C476.306 55.3487 478.568 54.026 480.651 51.882C484.629 47.786 486.67 41.034 486.67 31.946C486.67 25.642 485.665 20.362 483.728 16.4366C482.839 14.6553 481.886 13.2686 480.651 11.9993C477.573 8.8313 474.024 7.38063 468.455 7.0393C465.786 6.8793 448.995 6.90063 448.932 7.06063ZM469.816 12.522C472.088 12.9806 473.899 13.8873 475.27 15.2633C477.573 17.5673 478.913 21.1513 479.52 26.57C479.771 28.8953 479.771 34.9967 479.52 37.3327C479.018 41.8767 477.96 45.162 476.254 47.4873C474.726 49.5567 472.695 50.7833 469.806 51.37C469.052 51.53 467.963 51.562 462.258 51.594L455.579 51.6367V31.946V12.2553L462.258 12.298C467.984 12.33 469.052 12.362 469.816 12.522Z" fill="black"/>
<path d="M495.83 7.06136C495.799 7.13603 495.788 18.3787 495.799 32.0534L495.83 56.9067L499.107 56.9387L502.373 56.9601V31.9467V6.93336H499.128C496.626 6.93336 495.862 6.96536 495.83 7.06136Z" fill="black"/>
<path d="M558.693 7.62642V8.21309H559.95H561.206V11.8398V15.4664H561.834H562.462V11.8398V8.22376L563.75 8.19176L565.027 8.15976L565.058 7.59442L565.089 7.03975H561.897H558.693V7.62642Z" fill="black"/>
<path d="M566.125 11.2531V15.4664H566.753H567.381L567.402 12.0318L567.434 8.60776L567.946 9.82376C568.24 10.4958 568.742 11.6264 569.067 12.3411L569.674 13.6531H570.302H570.94L571.422 12.6078C571.684 12.0424 572.186 10.9011 572.532 10.0798C572.877 9.25842 573.181 8.56509 573.202 8.54376C573.223 8.52242 573.212 10.0691 573.17 11.9784L573.107 15.4664H573.851H574.604V11.2531V7.03975H573.631H572.647L571.516 9.54642C570.888 10.9224 570.354 12.0531 570.323 12.0531C570.291 12.0531 569.758 10.9331 569.15 9.56776L568.041 7.09309L567.078 7.06109L566.125 7.02909V11.2531Z" fill="black"/>
</svg>
