<svg width="210" height="49" viewBox="0 0 210 49" fill="none" xmlns="http://www.w3.org/2000/svg">
<g id="High_Definition_Multimedia_Interface_Logo 1" clip-path="url(#clip0_1_1011)">
<g id="g3258">
<g id="g3248">
<path id="polygon2993" d="M204.661 0.130371H206.06L207.345 3.4573L208.6 0.130371H210V5.0629H209.105V1.2948H209.091L207.705 5.0629H206.97L205.584 1.2948H205.555V5.0629H204.661V0.130371Z" fill="black"/>
<path id="polygon2995" d="M201.991 5.0629H201.096V0.962103H199.581V0.130371H203.492V0.962103H201.991V5.0629Z" fill="black"/>
</g>
<g id="g3252">
<path id="polygon2997" d="M194.285 0.000244141V14.0167L194.242 18.6383L194.285 22.0231V34.3255H180.894V0.000244141H194.285Z" fill="black"/>
<path id="path3005" d="M175.41 9.02634V34.3399H162.452V8.56347H150.099V34.3399H137.191V8.56347H124.846V34.3399H111.865V0.000244141H166.471C168.931 0.000244141 171.038 0.882603 172.791 2.63286C174.537 4.39034 175.418 6.52391 175.418 9.02634H175.41Z" fill="black"/>
<path id="path3033" d="M106.454 9.02634V25.2994C106.454 27.8092 105.567 29.9355 103.799 31.6928C102.031 33.4432 99.9173 34.3255 97.4496 34.3255H56.0338L55.9761 14.0167H68.942L68.9997 25.7839H93.4884V8.54177H55.9761L56.0338 0.000244141H97.4496C99.9173 0.000244141 102.031 0.882603 103.799 2.63286C105.567 4.39034 106.454 6.51668 106.454 9.02634Z" fill="black"/>
<path id="polygon3053" d="M36.762 0H50.37V34.3252H36.762V22.0228H13.3988V34.3252H0V0H13.3988V14.0165H36.762V0Z" fill="black"/>
</g>
<g id="g3208">
<path id="polygon2999" d="M190.302 47.9438H193.65V48.8551H189.249V42.8232H193.592V43.7345H190.302V45.3184H193.333V46.1791H190.302V47.9438Z" fill="black"/>
<path id="path3001" d="M186.666 46.5623H187.698C187.611 48.0016 186.594 48.9998 185.136 48.9998C183.332 48.9998 182.25 47.5677 182.25 45.839C182.25 44.1179 183.332 42.6785 185.136 42.6785C186.493 42.6857 187.561 43.4379 187.69 44.7397H186.637C186.457 44.0454 186.016 43.5391 185.136 43.5391C183.845 43.5391 183.304 44.6817 183.304 45.8389C183.304 46.9961 183.845 48.1388 185.136 48.1388C186.074 48.1391 186.587 47.4376 186.666 46.5623Z" fill="black"/>
<path id="path3003" d="M179.09 42.8232L181.413 48.8551H180.28L179.717 47.2567H177.308L176.738 48.8551H175.655L177.964 42.8232H179.083H179.09ZM179.436 46.4538L178.534 43.8647H178.513L177.596 46.4538H179.436Z" fill="black"/>
<path id="polygon3007" d="M175.381 43.7345H172.293V45.3184H175.006V46.1791H172.293V48.8551H171.225V42.8232H175.381V43.7345Z" fill="black"/>
<path id="path3009" d="M169.811 48.855H168.678C168.519 48.5946 168.519 48.2618 168.519 47.9725C168.519 46.8661 168.288 46.3741 167.322 46.3741H165.77V48.8549H164.717V42.823H167.588C168.909 42.823 169.58 43.4305 169.58 44.4575C169.58 45.6147 168.779 45.9113 168.584 45.9763V45.991C168.945 46.0416 169.479 46.3164 169.479 47.2711C169.479 47.9724 169.58 48.6162 169.811 48.8549V48.855ZM168.527 44.6094C168.527 43.8355 168.029 43.6838 167.48 43.6838H165.77V45.5715H167.495C168.166 45.5715 168.527 45.2388 168.527 44.6094Z" fill="black"/>
<path id="polygon3011" d="M159.854 47.9438H163.202V48.8551H158.815V42.8232H163.144V43.7345H159.854V45.3184H162.899V46.1791H159.854V47.9438Z" fill="black"/>
<path id="polygon3013" d="M155.611 48.8551H154.544V43.7345H152.639V42.8232H157.516V43.7345H155.611V48.8551Z" fill="black"/>
<path id="polygon3015" d="M150.387 42.8232H151.383V48.8551H150.272L147.53 44.4216H147.501V48.8551H146.491V42.8232H147.617L150.359 47.2712H150.387V42.8232Z" fill="black"/>
<path id="rect3017" d="M144.666 42.8232H143.612V48.8551H144.666V42.8232Z" fill="black"/>
<path id="path3019" d="M137.191 42.8232L139.514 48.8551H138.381L137.819 47.2567H135.416L134.853 48.8551H133.764L136.073 42.8232H137.191ZM137.537 46.4538L136.635 43.8647H136.614L135.697 46.4538H137.537Z" fill="black"/>
<path id="rect3021" d="M132.58 42.8232H131.527V48.8551H132.58V42.8232Z" fill="black"/>
<path id="path3023" d="M127.349 42.8232C129.204 42.8232 130.004 44.1757 130.004 45.8392C130.004 47.5026 129.204 48.8551 127.349 48.8551H124.853V42.8232H127.349ZM128.951 45.839C128.951 44.6312 128.598 43.6839 126.945 43.6839H125.906V47.9944H126.945C128.598 47.9944 128.951 47.047 128.951 45.839Z" fill="black"/>
<path id="polygon3025" d="M120.004 47.9438H123.345V48.8551H118.951V42.8232H123.287V43.7345H120.004V45.3184H123.042V46.1791H120.004V47.9438Z" fill="black"/>
<path id="polygon3027" d="M110.848 42.8232H112.334L113.994 47.546H114.008L115.632 42.8232H117.096V48.8551H116.093V44.2046H116.079L114.405 48.8551H113.539L111.872 44.2046H111.851V48.8551H110.848V42.8232Z" fill="black"/>
<path id="rect3029" d="M108.986 42.8232H107.933V48.8551H108.986V42.8232Z" fill="black"/>
<path id="polygon3031" d="M104.729 48.8551H103.676V43.7345H101.771V42.8232H106.641V43.7345H104.729V48.8551Z" fill="black"/>
<path id="polygon3035" d="M98.7407 47.9438H101.8V48.8551H97.6873V42.8232H98.7407V47.9438Z" fill="black"/>
<path id="path3037" d="M95.8834 42.8232V46.6854C95.8834 48.2331 94.8949 48.9998 93.4158 48.9998C91.9294 48.9998 90.9409 48.2331 90.9409 46.6854V42.8232H91.9943V46.3382C91.9943 47.1484 92.0521 48.0886 93.4158 48.0886C94.7795 48.0886 94.83 47.1484 94.83 46.3382V42.8232H95.8834Z" fill="black"/>
<path id="polygon3039" d="M82.9104 42.8232H84.3968L86.0563 47.546H86.0707L87.6941 42.8232H89.1588V48.8551H88.1559V44.2046H88.1343L86.4675 48.8551H85.6017L83.9278 44.2046H83.9133V48.8551H82.9104V42.8232Z" fill="black"/>
<path id="polygon3041" d="M77.1527 42.8232H78.1556V48.8551H77.0445L74.3027 44.4216H74.281V48.8551H73.2781V42.8232H74.3892L77.1383 47.2712H77.1527V42.8232Z" fill="black"/>
<path id="path3043" d="M68.8839 42.6785C70.6877 42.6785 71.7628 44.1177 71.7628 45.839C71.7628 47.5676 70.6877 48.9998 68.8839 48.9998C67.0801 48.9998 65.9978 47.5677 65.9978 45.839C65.9978 44.1177 67.0801 42.6785 68.8839 42.6785ZM70.7094 45.8389C70.7094 44.6817 70.1755 43.5391 68.8839 43.5391C67.5924 43.5391 67.0512 44.6817 67.0512 45.8389C67.0512 46.9961 67.5924 48.1388 68.8839 48.1388C70.1755 48.1388 70.7094 46.9961 70.7094 45.8389Z" fill="black"/>
<path id="rect3045" d="M64.4394 42.8232H63.386V48.8551H64.4394V42.8232Z" fill="black"/>
<path id="polygon3047" d="M60.1824 48.8551H59.129V43.7345H57.2241V42.8232H62.0944V43.7345H60.1824V48.8551Z" fill="black"/>
<path id="rect3049" d="M55.9182 42.8232H54.8647V48.8551H55.9182V42.8232Z" fill="black"/>
<path id="polygon3051" d="M52.0218 42.8232H53.0248V48.8551H51.9136L49.1718 44.4216H49.1501V48.8551H48.1472V42.8232H49.2584L52.0074 47.2712H52.0218V42.8232Z" fill="black"/>
<path id="rect3055" d="M46.3073 42.8232H45.2539V48.8551H46.3073V42.8232Z" fill="black"/>
<path id="polygon3057" d="M43.8181 43.7345H40.7155V45.3184H43.4429V46.1791H40.7155V48.8551H39.6621V42.8232H43.8181V43.7345Z" fill="black"/>
<path id="polygon3059" d="M34.8134 47.9438H38.1541V48.8551H33.76V42.8232H38.0964V43.7345H34.8134V45.3184H37.8511V46.1791H34.8134V47.9438Z" fill="black"/>
<path id="path3061" d="M29.5827 42.8232C31.437 42.8232 32.2379 44.1757 32.2379 45.8392C32.2379 47.5026 31.437 48.8551 29.5827 48.8551H27.0862V42.8232H29.5827ZM31.1845 45.839C31.1845 44.6312 30.8309 43.6839 29.1786 43.6839H28.1396V47.9944H29.1786C30.8309 47.9944 31.1845 47.047 31.1845 45.839Z" fill="black"/>
<path id="rect3063" d="M25.7369 45.7234H23.594V46.2804H25.7369V45.7234Z" fill="black"/>
<path id="polygon3065" d="M21.2416 42.8232H22.2951V48.8551H21.2416V46.1357H18.507V48.8551H17.4536V42.8232H18.507V45.2244H21.2416V42.8232Z" fill="black"/>
<path id="path3067" d="M15.7364 45.6801V48.8551H15.0654L14.9066 48.1463C14.3366 48.79 13.8243 48.9998 13.0956 48.9998C11.2918 48.9998 10.2095 47.5677 10.2095 45.839C10.2095 44.1179 11.2918 42.6785 13.0956 42.6785C14.4088 42.6785 15.5127 43.38 15.6715 44.7397H14.6397C14.5459 43.9441 13.8532 43.5391 13.0956 43.5391C11.8041 43.5391 11.2629 44.6817 11.2629 45.8389C11.2629 46.9961 11.8041 48.1388 13.0956 48.1388C14.1707 48.1533 14.7623 47.5024 14.7768 46.4826H13.175V45.6798H15.7364V45.6801Z" fill="black"/>
<path id="rect3069" d="M8.60788 42.8232H7.55444V48.8551H8.60788V42.8232Z" fill="black"/>
<path id="polygon3071" d="M4.64657 42.8232H5.7V48.8551H4.64657V46.1357H1.90475V48.8551H0.851318V42.8232H1.90475V45.2244H4.64657V42.8232Z" fill="black"/>
</g>
</g>
</g>
<defs>
<clipPath id="clip0_1_1011">
<rect width="210" height="49" fill="white"/>
</clipPath>
</defs>
</svg>
