<svg width="31" height="25" viewBox="0 0 31 25" fill="none" xmlns="http://www.w3.org/2000/svg">
<path d="M6.69015 0.356383C3.59012 0.571187 0.998681 2.38953 0.199453 4.90224C-0.00640837 5.55164 -0.066956 6.81549 0.084413 7.44991C0.387151 8.70377 1.00474 9.70286 2.02799 10.5871C2.30045 10.8268 2.6819 11.1116 2.8696 11.2215L3.20867 11.4213V17.7255C3.20867 22.0466 3.22683 24.0748 3.27527 24.1697C3.36609 24.3795 3.68699 24.6292 3.93524 24.6842C4.22587 24.7541 23.0804 24.7541 23.371 24.6842C23.6193 24.6292 23.9402 24.3795 24.031 24.1697C24.0734 24.0847 24.0976 23.6152 24.0976 23.0307C24.0976 22.4862 24.1157 22.0366 24.1339 22.0366C24.1581 22.0366 25.7081 22.676 27.5851 23.4553L31 24.874V17.9154V10.9517L27.5851 12.3754C25.7081 13.1547 24.1581 13.7941 24.14 13.7941C24.1218 13.7941 24.0976 13.3146 24.0855 12.7301C24.0734 12.1506 24.0431 11.6361 24.0189 11.5911C23.9825 11.5262 24.0673 11.4513 24.3943 11.2514C25.3025 10.692 26.1925 9.77779 26.6527 8.92357C27.1371 8.02439 27.3127 7.36499 27.3127 6.42585C27.3127 5.12204 26.9251 4.05301 26.0472 2.964C25.7747 2.61432 24.915 1.87 24.4609 1.58027C22.5657 0.376364 19.9016 0.011697 17.619 0.646118C16.1961 1.04575 14.852 1.87 14.0043 2.8641C13.8227 3.0789 13.6652 3.25374 13.6531 3.25374C13.641 3.25374 13.4836 3.0789 13.3019 2.8641C11.8428 1.14067 9.2937 0.176547 6.69015 0.356383ZM8.7185 2.2047C10.4683 2.61432 11.873 3.75828 12.3816 5.17699C13.0295 6.97535 12.1455 8.97352 10.2382 10.0176C8.73061 10.8418 6.78097 10.9767 5.18857 10.3573C4.54677 10.1075 4.19559 9.91267 3.6991 9.52802C3.01492 8.98352 2.55475 8.36408 2.25807 7.56481C2.11881 7.18016 2.09459 7.03529 2.09459 6.42585C2.08854 5.61659 2.1733 5.2719 2.5487 4.6125C3.10574 3.61841 4.06239 2.83912 5.24307 2.41451C5.64268 2.26964 6.1755 2.13976 6.56906 2.0898C7.01105 2.02986 8.27044 2.0948 8.7185 2.2047ZM21.3427 2.1997C23.2741 2.65429 24.7394 3.94811 25.139 5.54665C25.2843 6.11113 25.2601 6.9154 25.0966 7.44991C24.8605 8.19923 24.2974 8.98352 23.6071 9.52802C23.1107 9.91267 22.7595 10.1075 22.1177 10.3573C20.4708 10.9967 18.3819 10.8218 16.9045 9.92266C15.4332 9.03347 14.6461 7.6847 14.7309 6.20605C14.8399 4.20787 16.5231 2.57936 18.9208 2.13476C19.5081 2.02486 20.7614 2.05983 21.3427 2.1997ZM14.4826 10.4322C14.6885 10.617 14.9549 10.8418 15.0699 10.9317L15.2879 11.0916L13.6592 11.0966H12.0304L12.3937 10.8069C12.8539 10.4372 13.3262 9.96262 13.5078 9.70286L13.641 9.49805L13.8771 9.79777C14.0043 9.95763 14.2768 10.2474 14.4826 10.4322ZM22.039 17.9154V22.9857H13.6531H5.26728V17.9154V12.845H13.6531H22.039V17.9154ZM28.9414 17.9204V22.0916L26.5195 21.0775L24.0976 20.0634V17.9154V15.7673L26.5074 14.7582C27.8273 14.1988 28.9172 13.7442 28.9293 13.7442C28.9353 13.7442 28.9414 15.6225 28.9414 17.9204Z" fill="black"/>
</svg>
