<svg width="26" height="24" viewBox="0 0 26 24" fill="none" xmlns="http://www.w3.org/2000/svg">
<path d="M16.6239 1.13258L7.74934 2.25849L7.73727 10.0641L7.72922 17.8664L6.89207 17.8895C3.79301 17.9685 3.23759 18.0047 2.53326 18.1529C1.25338 18.4261 0.472582 18.9627 0.134502 19.8022C-0.00636413 20.1578 -0.0466117 20.9742 0.0620567 21.4022C0.347814 22.561 1.34193 23.1865 3.20539 23.3906C3.72056 23.4466 5.0608 23.4565 5.55585 23.4071C6.72303 23.2886 7.62055 22.8935 8.20816 22.2384C8.64284 21.7511 8.94872 20.9215 9.05739 19.9503C9.08153 19.71 9.09763 17.366 9.09763 13.4715C9.09763 10.1201 9.10568 7.37445 9.11776 7.37445C9.14593 7.37445 24.279 5.30041 24.3635 5.28724C24.4279 5.27407 24.432 5.54074 24.432 10.5349V15.7957L23.8202 15.8154C20.2301 15.9307 19.9967 15.9438 19.2923 16.0953C17.5577 16.4607 16.6923 17.4253 16.801 18.8672C16.9177 20.4738 18.0849 21.2376 20.6205 21.366C22.0614 21.4384 23.1883 21.2902 23.953 20.9215C25.1041 20.3717 25.6555 19.3841 25.748 17.7051C25.7682 17.3924 25.7762 13.2805 25.7682 8.56619L25.7561 9.53754e-05L25.6273 0.0033875C25.5549 0.00667962 21.506 0.513666 16.6239 1.13258Z" fill="black"/>
</svg>
