<svg width="39" height="39" viewBox="0 0 39 39" fill="none" xmlns="http://www.w3.org/2000/svg">
<mask id="path-1-inside-1_6_266" fill="white">
<path d="M38.4754 19.4999C38.4754 15.747 37.3625 12.0784 35.2775 8.95796C33.1925 5.83753 30.229 3.40546 26.7618 1.96929C23.2946 0.533115 19.4793 0.157347 15.7986 0.889502C12.1178 1.62166 8.73674 3.42885 6.08304 6.08255C3.42934 8.73625 1.62214 12.1173 0.88999 15.7981C0.157835 19.4789 0.533604 23.2941 1.96978 26.7613C3.40595 30.2285 5.83802 33.192 8.95845 35.277C12.0789 37.362 15.7475 38.4749 19.5004 38.4749V37.1863C16.0023 37.1863 12.5829 36.149 9.67434 34.2056C6.76583 32.2622 4.49891 29.5 3.16027 26.2682C1.82163 23.0364 1.47138 19.4803 2.15381 16.0495C2.83625 12.6186 4.52071 9.46721 6.9942 6.99372C9.46769 4.52023 12.6191 2.83576 16.0499 2.15332C19.4808 1.47089 23.0369 1.82114 26.2687 3.15978C29.5005 4.49843 32.2627 6.76534 34.2061 9.67385C36.1495 12.5824 37.1868 16.0019 37.1868 19.4999H38.4754Z"/>
</mask>
<path d="M38.4754 19.4999C38.4754 15.747 37.3625 12.0784 35.2775 8.95796C33.1925 5.83753 30.229 3.40546 26.7618 1.96929C23.2946 0.533115 19.4793 0.157347 15.7986 0.889502C12.1178 1.62166 8.73674 3.42885 6.08304 6.08255C3.42934 8.73625 1.62214 12.1173 0.88999 15.7981C0.157835 19.4789 0.533604 23.2941 1.96978 26.7613C3.40595 30.2285 5.83802 33.192 8.95845 35.277C12.0789 37.362 15.7475 38.4749 19.5004 38.4749V37.1863C16.0023 37.1863 12.5829 36.149 9.67434 34.2056C6.76583 32.2622 4.49891 29.5 3.16027 26.2682C1.82163 23.0364 1.47138 19.4803 2.15381 16.0495C2.83625 12.6186 4.52071 9.46721 6.9942 6.99372C9.46769 4.52023 12.6191 2.83576 16.0499 2.15332C19.4808 1.47089 23.0369 1.82114 26.2687 3.15978C29.5005 4.49843 32.2627 6.76534 34.2061 9.67385C36.1495 12.5824 37.1868 16.0019 37.1868 19.4999H38.4754Z" stroke="black" stroke-width="2.3" mask="url(#path-1-inside-1_6_266)"/>
<path d="M18.9258 10.8726V26.9726" stroke="black" stroke-width="1.15"/>
<path d="M26.9746 18.9292L10.8746 18.9292" stroke="black" stroke-width="1.15"/>
</svg>
