<svg width="42" height="42" viewBox="0 0 42 42" fill="none" xmlns="http://www.w3.org/2000/svg">
<g opacity="0.4">
<path d="M10.6484 20.7041L31.3527 20.7041" stroke="#516C82" stroke-width="2"/>
<path d="M20.9998 10.3521L20.9998 31.0563" stroke="#516C82" stroke-width="2"/>
<mask id="path-3-inside-1_1_290" fill="white">
<path d="M42 20.9999C42 25.1534 40.7684 29.2135 38.4609 32.6669C36.1534 36.1204 32.8736 38.812 29.0364 40.4015C25.1991 41.9909 20.9767 42.4068 16.9031 41.5965C12.8295 40.7862 9.08766 38.7861 6.15076 35.8492C3.21385 32.9123 1.2138 29.1705 0.403508 25.0968C-0.406781 21.0232 0.00908897 16.8008 1.59853 12.9636C3.18797 9.1263 5.87959 5.84654 9.33303 3.53903C12.7865 1.23151 16.8466 -0.000119718 21 -0.000119174L21 1.31822C17.1073 1.31822 13.3021 2.47253 10.0655 4.63519C6.82882 6.79784 4.30617 9.87171 2.81652 13.4681C1.32686 17.0644 0.937094 21.0218 1.69651 24.8397C2.45594 28.6575 4.33043 32.1645 7.08296 34.917C9.83549 37.6696 13.3424 39.5441 17.1603 40.3035C20.9782 41.0629 24.9355 40.6731 28.5318 39.1835C32.1282 37.6938 35.2021 35.1712 37.3647 31.9345C39.5274 28.6979 40.6817 24.8926 40.6817 20.9999L42 20.9999Z"/>
</mask>
<path d="M42 20.9999C42 25.1534 40.7684 29.2135 38.4609 32.6669C36.1534 36.1204 32.8736 38.812 29.0364 40.4015C25.1991 41.9909 20.9767 42.4068 16.9031 41.5965C12.8295 40.7862 9.08766 38.7861 6.15076 35.8492C3.21385 32.9123 1.2138 29.1705 0.403508 25.0968C-0.406781 21.0232 0.00908897 16.8008 1.59853 12.9636C3.18797 9.1263 5.87959 5.84654 9.33303 3.53903C12.7865 1.23151 16.8466 -0.000119718 21 -0.000119174L21 1.31822C17.1073 1.31822 13.3021 2.47253 10.0655 4.63519C6.82882 6.79784 4.30617 9.87171 2.81652 13.4681C1.32686 17.0644 0.937094 21.0218 1.69651 24.8397C2.45594 28.6575 4.33043 32.1645 7.08296 34.917C9.83549 37.6696 13.3424 39.5441 17.1603 40.3035C20.9782 41.0629 24.9355 40.6731 28.5318 39.1835C32.1282 37.6938 35.2021 35.1712 37.3647 31.9345C39.5274 28.6979 40.6817 24.8926 40.6817 20.9999L42 20.9999Z" fill="#516C82" stroke="#516C82" stroke-width="0.600001" mask="url(#path-3-inside-1_1_290)"/>
</g>
</svg>
