<svg width="43" height="43" viewBox="0 0 43 43" fill="none" xmlns="http://www.w3.org/2000/svg">
<g id="Black">
<path id="Vector" d="M19.4625 0.56501C13.0968 1.11288 7.13983 4.65226 3.60044 9.9657C1.15678 13.6268 0.00887225 17.401 0.000175956 21.7666C-0.00852034 24.2885 0.304546 26.2104 1.06982 28.4627C1.21766 28.8888 1.37419 29.3671 1.41767 29.5063C1.60029 30.0802 2.78299 32.3413 3.39173 33.2805C6.72241 38.3852 11.801 41.7246 17.8537 42.7942C19.3494 43.0551 23.054 43.0725 24.4628 42.8203C30.4459 41.768 35.2202 38.7939 38.6465 33.9762C41.9511 29.315 43.2121 23.5493 42.1598 17.8532C41.3771 13.6355 39.3596 9.83526 36.255 6.71329C32.7417 3.19129 28.0892 1.01722 23.1584 0.591099C22.2192 0.512832 20.2451 0.495439 19.4625 0.56501ZM21.5409 12.1572C26.8891 12.5485 31.6286 13.8616 35.5506 16.0444C36.5594 16.6097 36.9681 17.4793 36.6898 18.4533C36.455 19.2707 35.8463 19.636 34.7506 19.636C34.2984 19.636 34.1244 19.5838 33.62 19.3142C30.6633 17.7315 28.237 16.9401 24.3324 16.2966C22.0453 15.9227 21.0887 15.8531 18.1146 15.8531C14.5056 15.8531 12.9055 16.027 10.0009 16.7575C8.46167 17.1401 8.08773 17.1314 7.4616 16.6966C6.42674 15.9748 6.42674 14.3747 7.4616 13.6268C8.20948 13.0877 11.6184 12.4094 14.9404 12.1311C15.7492 12.0615 20.506 12.0789 21.5409 12.1572ZM21.5931 19.4707C25.5064 19.9664 28.611 20.8969 31.8025 22.5318C32.4721 22.8797 33.1678 23.2971 33.3418 23.4623C34.1505 24.2276 33.8722 25.4799 32.7678 25.993C32.2634 26.2278 31.9417 26.193 31.3155 25.8538C28.411 24.2537 26.463 23.5406 23.3062 22.8971C19.3146 22.097 15.2361 22.1753 11.4271 23.1232C9.44435 23.6189 8.93996 23.558 8.40079 22.7666C8.10512 22.3405 8.12251 21.5231 8.42688 21.0622C8.55733 20.8795 8.72256 20.6795 8.80082 20.6187C9.16607 20.3578 11.5575 19.7925 13.549 19.5055C15.8796 19.1751 19.1059 19.1577 21.5931 19.4707ZM20.0712 26.2452C23.0019 26.4974 24.9933 26.9496 27.4979 27.9322C28.8284 28.454 30.8198 29.5671 31.0112 29.8976C31.3329 30.4368 31.1155 31.3151 30.585 31.6369C30.1154 31.9325 29.7067 31.8891 28.8806 31.4368C27.4022 30.6368 27.1848 30.5324 26.2891 30.1759C22.054 28.4975 17.1319 28.2627 11.3141 29.4628C10.0879 29.715 10.0705 29.715 9.71393 29.5584C9.05302 29.2628 8.73125 28.4018 9.05302 27.8105C9.28782 27.367 9.75742 27.1496 10.9836 26.9061C13.9751 26.306 17.6015 26.0364 20.0712 26.2452Z" fill="#03B153"/>
</g>
</svg>
