<svg width="43" height="43" viewBox="0 0 43 43" fill="none" xmlns="http://www.w3.org/2000/svg">
<path fill-rule="evenodd" clip-rule="evenodd" d="M3.02269 3.02266C0.0904654 5.9549 0.00274421 10.6208 0.00012207 19.7797C8.20794 19.7797 13.3325 16.2559 17.8276 13.165C21.3393 10.7503 24.4668 8.59974 28.3801 8.59974C34.2046 8.59974 39.2902 12.718 41.9869 14.9017C42.3671 15.2097 42.6999 15.4791 42.9807 15.6932C42.8955 9.16304 42.4375 5.48272 39.9774 3.02266C36.9547 1.43528e-06 32.0898 1.00097e-06 22.36 1.50367e-07L20.64 0C10.9102 2.43003e-06 6.04534 2.0504e-06 3.02269 3.02266ZM19.3759 42.9997C19.7879 43 20.2092 43 20.6401 43H22.36C22.7908 43 23.2122 43 23.6241 42.9997H19.3759Z" fill="#0077FF"/>
<path fill-rule="evenodd" clip-rule="evenodd" d="M8.21322e-05 19.7799C8.20791 19.7798 13.3325 16.256 17.8276 13.1651C21.3392 10.7504 24.4667 8.59985 28.38 8.59985C34.2045 8.59985 39.2902 12.7181 41.9868 14.9018C42.3671 15.2098 42.6999 15.4793 42.9806 15.6933C42.9999 17.1867 42.9999 18.8291 42.9999 20.6401V22.3601C42.9999 32.0899 42.9999 36.9548 39.9773 39.9775C37.0885 42.8663 32.5169 42.9942 23.6238 42.9999H19.3761C10.4831 42.9942 5.9115 42.8663 3.02266 39.9775C-1.23024e-06 36.9548 -8.59083e-07 32.0899 9.17099e-10 22.3601L4.36627e-07 20.6401C4.36627e-07 20.349 4.32243e-07 20.0623 8.21322e-05 19.7799Z" fill="#F45FFF"/>
<path d="M33.3242 21.9194C33.3242 20.8566 34.1965 19.9951 35.2592 19.9951C36.322 19.9951 37.1942 20.8566 37.1942 21.9194V29.6809C37.1942 30.7436 36.322 31.6051 35.2592 31.6051C34.1965 31.6051 33.3242 30.7436 33.3242 29.6809V21.9194Z" fill="white"/>
<path d="M26.4454 16.9744C26.4454 15.9117 27.3177 15.0502 28.3804 15.0502C29.4432 15.0502 30.3154 15.9117 30.3154 16.9744V34.6259C30.3154 35.6887 29.4432 36.5502 28.3804 36.5502C27.3177 36.5502 26.4454 35.6887 26.4454 34.6259V16.9744Z" fill="white"/>
<path d="M19.5645 21.9194C19.5645 20.8566 20.4367 19.9951 21.4995 19.9951C22.5622 19.9951 23.4345 20.8566 23.4345 21.9194V29.6809C23.4345 30.7436 22.5622 31.6051 21.4995 31.6051C20.4367 31.6051 19.5645 30.7436 19.5645 29.6809V21.9194Z" fill="white"/>
<path d="M12.6836 24.7142C12.6836 23.6514 13.5559 22.7899 14.6186 22.7899C15.6813 22.7899 16.5536 23.6514 16.5536 24.7142V26.8857C16.5536 27.9484 15.6813 28.8099 14.6186 28.8099C13.5559 28.8099 12.6836 27.9484 12.6836 26.8857V24.7142Z" fill="white"/>
<path d="M5.80457 24.7142C5.80457 23.6514 6.67686 22.7899 7.73957 22.7899C8.80231 22.7899 9.67457 23.6514 9.67457 24.7142V26.8857C9.67457 27.9484 8.80231 28.8099 7.73957 28.8099C6.67686 28.8099 5.80457 27.9484 5.80457 26.8857V24.7142Z" fill="white"/>
</svg>
