<svg width="42" height="42" viewBox="0 0 42 42" fill="none" xmlns="http://www.w3.org/2000/svg">
<path d="M8.32662 3.97875C11.4058 1.72989 15.0386 0.345979 18.8444 0V6.26221C16.3879 6.57359 14.0699 7.50773 12.0632 8.99544C9.57214 10.8637 7.70386 13.4586 6.80432 16.434C5.90478 19.4094 5.97397 22.5924 7.01191 25.5332C8.04984 28.474 10.0219 30.9997 12.6168 32.7296C15.2116 34.4595 18.2908 35.3244 21.4046 35.186C24.5184 35.0476 27.4938 33.9059 29.9157 31.9338C32.3375 29.9617 34.0328 27.2631 34.794 24.2531C35.3129 22.1426 35.3821 19.963 34.967 17.8525L40.2258 13.6316V13.597C41.6444 17.5065 41.8519 21.762 40.8486 25.81C39.7415 30.1347 37.3196 33.9751 33.8598 36.7775C30.4 39.5799 26.1445 41.2406 21.716 41.4482C17.2875 41.6558 12.8589 40.4449 9.19157 37.9538C5.4896 35.4628 2.68717 31.8646 1.19946 27.6783C-0.288245 23.4919 -0.392036 18.925 0.888085 14.6695C2.13361 10.3794 4.76304 6.64279 8.32662 3.97875Z" fill="#FCCA00"/>
<path d="M36.2467 6.91964L36.2813 6.98884L32.7523 12.5591C31.4722 10.6562 29.7769 9.09931 27.7702 7.95758V20.655C27.7702 24.5645 24.6218 27.7129 20.7123 27.7129C16.8027 27.7129 13.6543 24.5645 13.6543 20.655C13.6543 16.7454 16.8027 13.597 20.7123 13.597C22.1654 13.597 23.5147 14.0468 24.6564 14.8079V0.276855C29.2233 1.1764 33.2713 3.56365 36.2467 6.91964Z" fill="#FC3F1D"/>
</svg>
